<?xml version="1.0" encoding="UTF-8"?>
<svg width="100px" height="100px" viewBox="0 0 100 100" version="1.1" xmlns="http://www.w3.org/2000/svg" xmlns:xlink="http://www.w3.org/1999/xlink">
    <!-- Generator: sketchtool 51.2 (57519) - http://www.bohemiancoding.com/sketch -->
    <title>68885CA0-4BE5-4C14-B2AC-EFCE97C17038</title>
    <desc>Created with sketchtool.</desc>
    <defs></defs>
    <g id="Symbols" stroke="none" stroke-width="1" fill="none" fill-rule="evenodd">
        <g id="Android_icn">
            <g id="Android">
                <rect id="Rectangle-10-Copy" x="0" y="0" width="100" height="100"></rect>
                <path d="M64.7862666,33.8909335 C64.385162,32.0608542 63.7551917,30.232464 62.8523004,28.537253 C61.7670672,26.4996885 60.3590442,24.7972045 58.5944099,23.5275881 C58.3688621,23.3653114 58.1377598,23.2103598 57.9010105,23.0628672 C55.7468711,21.7208588 53.1387861,21.0000002 49.9999999,21 C43.785396,20.9999995 39.6762771,23.7897555 37.1476992,28.5372529 C36.2448081,30.232464 35.6148379,32.0608542 35.2137333,33.8909334 C35.1286578,34.2790989 35.0578709,34.6500034 35,35 L65,35 C64.9421291,34.6500034 64.8713422,34.2790989 64.7862666,33.8909335 Z M67,37 L33,37 C33,37 34.0587763,18.9999987 50,19 C53.7235029,19.0000003 56.6350458,19.9820482 58.9107922,21.4873761 C59.1833156,21.667641 59.4467215,21.8554099 59.7013124,22.049895 C66.4226374,27.1843992 67,37 67,37 Z" id="Oval-1" fill="#898989" fill-rule="nonzero"></path>
                <path d="M62.7581629,16.1044244 C62.9027715,15.8539548 63.2230457,15.7681376 63.4735152,15.9127463 L64.2985356,16.389072 C64.5490051,16.5336807 64.6348223,16.8539548 64.4902137,17.1044244 L60.7520508,23.5791124 L59.0595901,22.5105402 L62.7581629,16.1044244 Z M35.5136063,17.1047555 C35.3689976,16.8542859 35.4548148,16.5340118 35.7052844,16.3894031 L36.5303047,15.9130774 C36.7807743,15.7684687 37.1010484,15.8542859 37.2456571,16.1047555 L40.9686127,22.5531038 L39.2517691,23.5794435 L35.5136063,17.1047555 Z" id="Path" fill="#898989"></path>
                <path d="M34,41 L34,67.1597221 C34,68.7283643 35.2716357,70 36.8402779,70 L63.1597221,70 C64.7283643,70 66,68.7283643 66,67.1597221 L66,41 L34,41 Z" id="Rectangle-1" stroke="#898989" stroke-width="2"></path>
                <rect id="Rectangle-2" stroke="#898989" stroke-width="2" x="24" y="40" width="6" height="22" rx="3"></rect>
                <rect id="Rectangle-2-Copy-3" stroke="#898989" stroke-width="2" x="70" y="40" width="6" height="22" rx="3"></rect>
                <path d="M39,70 L39,80 C39,81.6568542 40.3431458,83 42,83 C43.6568542,83 45,81.6568542 45,80 L45,70 L39,70 Z" id="Rectangle-2-copy-4" stroke="#898989" stroke-width="2"></path>
                <path d="M53,70 L53,80 C53,81.6568542 54.3431458,83 56,83 C57.6568542,83 59,81.6568542 59,80 L59,70 L53,70 Z" id="Rectangle-2-copy-5" stroke="#898989" stroke-width="2"></path>
                <ellipse id="Oval-4" fill="#898989" cx="41.6923077" cy="29.8613861" rx="1.38461538" ry="1.38613861"></ellipse>
                <ellipse id="Oval-4-Copy" fill="#898989" cx="58.3076923" cy="29.8613861" rx="1.38461538" ry="1.38613861"></ellipse>
            </g>
        </g>
    </g>
</svg>