<?xml version="1.0" encoding="UTF-8"?>
<svg width="100px" height="100px" viewBox="0 0 100 100" version="1.1" xmlns="http://www.w3.org/2000/svg" xmlns:xlink="http://www.w3.org/1999/xlink">
    <!-- Generator: sketchtool 51.2 (57519) - http://www.bohemiancoding.com/sketch -->
    <title>11B75738-D805-4FFE-A539-8FC8D325B1A8</title>
    <desc>Created with sketchtool.</desc>
    <defs></defs>
    <g id="Symbols" stroke="none" stroke-width="1" fill="none" fill-rule="evenodd">
        <g id="iOS_icn">
            <g id="iOS">
                <rect id="Rectangle-10" x="0" y="0" width="100" height="100"></rect>
                <path d="M76.7694915,61.1518154 C76.5488061,61.0401654 76.3036641,60.9083996 76.0302586,60.7518572 C74.8904229,60.0992275 73.7543415,59.2755894 72.6923025,58.2636734 C69.6528912,55.3677074 67.8058315,51.5251713 67.7640127,46.6647925 C67.7264239,42.4732557 69.2241254,38.9369036 71.7337236,36.0514854 C72.5607848,35.1005691 73.444724,34.2852816 74.3398151,33.5964439 C74.4901347,33.4807619 74.6364679,33.3720051 74.7787996,33.269679 C71.7931008,29.4406195 67.6683104,27.8643069 63.5195912,27.6740379 C61.2844136,27.4466096 59.1024104,27.9467641 55.9447784,29.1684958 C55.7179068,29.2562756 55.4894459,29.345988 55.1857002,29.4662284 C54.8133553,29.6138542 54.6185588,29.6910511 54.4485639,29.7579969 C53.861094,29.989349 53.4420478,30.1482529 53.0437782,30.2875915 C51.9811009,30.6593797 51.1764077,30.8472472 50.4554483,30.8472472 C49.180704,30.8472472 48.8731495,30.743362 45.1340789,29.2792073 C42.5384877,28.2628191 40.8652803,27.8210213 39.1181622,27.8500529 C33.6648384,27.9341911 28.5976974,31.0260978 25.7384422,35.9968734 C20.5798268,44.992384 23.1704144,59.7115786 30.0604434,69.6939708 C34.2257195,75.7179512 36.7818476,78.1245541 40.0556967,77.9959123 C41.5009577,77.938434 42.5455578,77.6386965 44.3104741,76.8897286 C44.4296911,76.8391371 44.5693537,76.7794559 44.8330551,76.6667326 C47.3587808,75.5891759 48.9175656,75.1690444 51.360625,75.1690444 C53.6984923,75.1690444 55.1995262,75.5788691 57.6047001,76.6204278 C57.8762302,76.7382794 58.0193199,76.8003583 58.1420715,76.8531806 C59.9859711,77.6466439 61.0852204,77.9365453 62.6863884,77.9051594 C66.1617215,77.8435087 68.4213561,75.7226 72.4067446,69.8554786 C73.8217849,67.7855864 74.9805095,65.5910819 75.9075308,63.3952264 C76.2345866,62.620522 76.5095639,61.899858 76.7413082,61.2334789 C76.7504051,61.2073208 76.7598307,61.1799999 76.7694915,61.1518154 Z" id="apple_logo" stroke="#898989" stroke-width="2"></path>
                <path d="M59.5902388,20.3813816 C57.3544965,23.1252345 53.6776561,25.25765 50.0781325,24.9747785 C49.5970506,21.2452275 51.4118462,17.3611851 53.4822166,14.921963 C55.7888326,12.1846378 59.7083616,10.1283801 62.93204,10 C63.3443959,13.8144125 61.8367195,17.6331769 59.5902388,20.3813816 Z M60.9637331,12 C58.8253082,12.0890856 56.5414451,13.8592502 55.0113529,15.7587364 C53.6379741,17.4513628 51.7160374,20.3990635 52.0351628,22.9870757 C54.4229045,23.183366 56.9482293,21.1078702 58.4313075,19.2038542 C59.9215091,17.2968184 61.2372692,14.6468993 60.9637331,12 Z" id="Combined-Shape" fill="#898989"></path>
            </g>
        </g>
    </g>
</svg>