<?xml version="1.0" encoding="UTF-8"?>
<svg width="100px" height="100px" viewBox="0 0 100 100" version="1.1" xmlns="http://www.w3.org/2000/svg" xmlns:xlink="http://www.w3.org/1999/xlink">
    <!-- Generator: sketchtool 51.2 (57519) - http://www.bohemiancoding.com/sketch -->
    <title>6EE41D8B-6AD9-476B-B357-9828C113FD32</title>
    <desc>Created with sketchtool.</desc>
    <defs></defs>
    <g id="Symbols" stroke="none" stroke-width="1" fill="none" fill-rule="evenodd">
        <g id="TV_icn">
            <g id="TV">
                <rect id="Rectangle-10-Copy-3" x="0" y="0" width="100" height="100"></rect>
                <rect id="Rectangle-7-Copy-2" fill="#898989" x="36" y="83" width="28" height="2"></rect>
                <rect id="Rectangle-7-Copy-4" fill="#898989" x="49" y="71" width="2" height="14"></rect>
                <path d="M18.375,31 C17.6156085,31 17,31.6076136 17,32.3571429 L17,67.6428571 C17,68.3923864 17.6156085,69 18.375,69 L81.625,69 C82.3843915,69 83,68.3923864 83,67.6428571 L83,32.3571429 C83,31.6076136 82.3843915,31 81.625,31 L18.375,31 Z M17.8,29 L82.2,29 C83.7463973,29 85,30.2536027 85,31.8 L85,68.2 C85,69.7463973 83.7463973,71 82.2,71 L17.8,71 C16.2536027,71 15,69.7463973 15,68.2 L15,31.8 C15,30.2536027 16.2536027,29 17.8,29 Z" id="Rectangle-3" fill="#898989" fill-rule="nonzero"></path>
                <path d="M60.9202516,15 L59.6043082,16.6088758 L60.6840566,17.4803502 L62,15.8714744 L60.9202516,15 Z M58.7270126,17.6814597 L57.4110692,19.2903356 L58.4908176,20.16181 L59.806761,18.5529341 L58.7270126,17.6814597 Z M56.5337736,20.3629195 L55.2178302,21.9717953 L56.2975786,22.8432697 L57.613522,21.2343939 L56.5337736,20.3629195 Z M54.3405346,23.0443792 L53.0245912,24.653255 L54.1043397,25.5247294 L55.4202831,23.9158536 L54.3405346,23.0443792 Z M52.1472956,25.7258389 L51,27.1285256 L52.0797484,28 L53.2270441,26.5973133 L52.1472956,25.7258389 Z" id="Line" fill="#898989" fill-rule="nonzero"></path>
                <path d="M47.9202516,15 L46.6043082,16.6088758 L47.6840566,17.4803502 L49,15.8714744 L47.9202516,15 Z M45.7270126,17.6814597 L44.4110692,19.2903356 L45.4908176,20.16181 L46.806761,18.5529341 L45.7270126,17.6814597 Z M43.5337736,20.3629195 L42.2178302,21.9717953 L43.2975786,22.8432697 L44.613522,21.2343939 L43.5337736,20.3629195 Z M41.3405346,23.0443792 L40.0245912,24.653255 L41.1043397,25.5247294 L42.4202831,23.9158536 L41.3405346,23.0443792 Z M39.1472956,25.7258389 L38,27.1285256 L39.0797484,28 L40.2270441,26.5973133 L39.1472956,25.7258389 Z" id="Line" fill="#898989" fill-rule="nonzero" transform="translate(43.500000, 21.500000) scale(-1, 1) translate(-43.500000, -21.500000) "></path>
                <circle id="Oval-57-Copy-5-Copy" fill="#898989" cx="22.5" cy="63.5" r="2.5"></circle>
            </g>
        </g>
    </g>
</svg>