<?xml version="1.0" encoding="UTF-8"?>
<svg width="100px" height="100px" viewBox="0 0 100 100" version="1.1" xmlns="http://www.w3.org/2000/svg" xmlns:xlink="http://www.w3.org/1999/xlink">
    <!-- Generator: sketchtool 51.2 (57519) - http://www.bohemiancoding.com/sketch -->
    <title>EF100013-9738-4A08-89CD-2AE66076E736</title>
    <desc>Created with sketchtool.</desc>
    <defs></defs>
    <g id="Symbols" stroke="none" stroke-width="1" fill="none" fill-rule="evenodd">
        <g id="Wearables_icn">
            <g id="wear">
                <rect id="Rectangle-10-Copy-2" x="0" y="0" width="100" height="100"></rect>
                <path d="M34.0000019,26 L66,26 L66,21.4041378 C66,19.7554288 64.9107989,18.3049797 63.3274847,17.845243 C59.0895589,16.6147203 54.8433362,16 50.5862086,16 C46.2234825,16 41.6124912,16.6456099 36.7525992,17.9392841 C35.1295616,18.3713271 34.0000097,19.8408931 34.0000091,21.5204515 L34.0000019,26 Z" id="Rectangle-11" stroke="#898989" stroke-width="2"></path>
                <path d="M34.0000016,84 L65.9999998,84 L65.9999998,79.4041378 C65.9999998,77.7554288 64.9107986,76.3049797 63.3274844,75.845243 C59.0895586,74.6147203 54.843336,74 50.5862083,74 C46.2234823,74 41.6124909,74.6456099 36.7525989,75.9392841 C35.1295614,76.3713271 34.0000095,77.8408931 34.0000088,79.5204515 L34.0000016,84 Z" id="Rectangle-11-Copy" stroke="#898989" stroke-width="2" transform="translate(50.000000, 79.000000) rotate(-180.000000) translate(-50.000000, -79.000000) "></path>
                <path d="M28.9166667,32.4078606 L28.9166667,67.5921394 C28.9166667,70.6915094 31.6193574,73.2142857 34.9471559,73.2142857 L65.0528441,73.2142857 C68.3820353,73.2142857 71.0833333,70.6955556 71.0833333,67.5921394 L71.0833333,32.4078606 C71.0833333,29.3084906 68.3806426,26.7857143 65.0528441,26.7857143 L34.9471559,26.7857143 C31.6179647,26.7857143 28.9166667,29.3044444 28.9166667,32.4078606 Z M27,32.1372123 C27,28.1954388 30.438664,25 34.6734678,25 L65.3265322,25 C69.5644714,25 73,28.2037862 73,32.1372123 L73,67.8627877 C73,71.8045612 69.561336,75 65.3265322,75 L34.6734678,75 C30.4355286,75 27,71.7962138 27,67.8627877 L27,32.1372123 Z" id="Rectangle-3" fill="#898989" fill-rule="nonzero"></path>
                <rect id="Rectangle-7-Copy" fill="#898989" x="75" y="34" width="2" height="9" rx="1"></rect>
                <rect id="Rectangle-7-Copy-2" fill="#898989" x="75" y="50" width="2" height="15" rx="0.819964349"></rect>
            </g>
        </g>
    </g>
</svg>