<svg xmlns="http://www.w3.org/2000/svg" xmlns:xlink="http://www.w3.org/1999/xlink" width="70" height="63" viewBox="0 0 70 63">
    <defs>
        <path id="a" d="M34.99 0H0v62.412h69.98V0H34.99z"/>
    </defs>
    <g fill="none" fill-rule="evenodd">
        <mask id="b" fill="#fff">
            <use xlink:href="#a"/>
        </mask>
        <path fill="#FEFEFE" d="M43.116 0C73.869 20.905 63.92 43.92 63.92 43.92s8.743 9.849 5.226 18.492c0 0-3.618-6.03-9.649-6.03-5.829 0-9.246 6.03-21.005 6.03C12.362 62.412 0 40.603 0 40.603c23.528 15.504 39.598 4.523 39.598 4.523C28.984 38.96 6.432 9.548 6.432 9.548c19.657 16.72 28.14 21.105 28.14 21.105C29.495 26.472 15.277 6.03 15.277 6.03c11.377 11.51 33.97 27.538 33.97 27.538C55.691 15.85 43.116 0 43.116 0" mask="url(#b)"/>
    </g>
</svg>
