<svg xmlns="http://www.w3.org/2000/svg" width="70" height="70" viewBox="0 0 70 70">
    <path fill="#FFF" fill-rule="nonzero" d="M0 35v35h70V0H0v35zm42.93-1.23v3.144h-9.024v28.711h-7.383v-28.71H17.5v-6.29h25.43v3.145zm17.773-2.762c1.121.219 2.379.52 2.817.683l.738.301v3.418c0 1.887-.055 3.418-.11 3.418-.054 0-.628-.3-1.285-.656-2.46-1.395-6.398-1.914-8.804-1.203-.575.164-1.422.683-1.86 1.12-.656.63-.793 1.013-.793 2.024 0 1.094.137 1.395 1.04 2.242.574.547 2.706 1.805 4.784 2.844 4.375 2.16 6.59 3.992 7.602 6.262.902 2.023.93 6.289.055 8.203-.82 1.805-2.625 3.637-4.403 4.484-3.773 1.778-9.925 1.942-14.738.356l-1.723-.574v-7.602l1.368.984c1.777 1.286 4.074 2.079 6.48 2.243 2.406.164 4.184-.274 5.277-1.313.684-.629.82-.984.82-2.023 0-1.996-1.148-3.035-5.85-5.332-4.157-2.051-5.47-2.98-6.7-4.785-2.734-3.965-1.914-10.036 1.75-12.797 3.117-2.38 8.285-3.254 13.535-2.297z"/>
</svg>
