<?xml version="1.0" encoding="UTF-8"?>
<svg width="70px" height="70px" viewBox="0 0 70 70" version="1.1" xmlns="http://www.w3.org/2000/svg" xmlns:xlink="http://www.w3.org/1999/xlink">
    <!-- Generator: sketchtool 51.2 (57519) - http://www.bohemiancoding.com/sketch -->
    <title>3E3D8895-CA88-41BA-9578-DB7FE37DEB10</title>
    <desc>Created with sketchtool.</desc>
    <defs>
        <path d="M35,60 L35,60 C21.1928814,60 10,48.8071186 10,35 C10,21.1928814 21.1928814,10 35,10 C48.8071186,10 60,21.1928814 60,35 C60,48.8071186 48.8071186,60 35,60 L35,60 L35,60 Z" id="path-1"></path>
        <mask id="mask-2" maskContentUnits="userSpaceOnUse" maskUnits="objectBoundingBox" x="0" y="0" width="50" height="50" fill="white">
            <use xlink:href="#path-1"></use>
        </mask>
    </defs>
    <g id="Page-1" stroke="none" stroke-width="1" fill="none" fill-rule="evenodd">
        <g id="Home_desktop_new" transform="translate(-1085.000000, -8146.000000)">
            <g id="05" transform="translate(0.000000, 7690.000000)">
                <g id="Group-2" transform="translate(145.000000, 456.000000)">
                    <g id="comm" transform="translate(800.000000, 0.000000)">
                        <g id="Communications" transform="translate(140.000000, 0.000000)">
                            <use id="Shape" stroke="#5E6064" mask="url(#mask-2)" stroke-width="4" stroke-dasharray="2,2" xlink:href="#path-1"></use>
                            <path d="M2,19.9880373 L2,19.9880373 L0,21.9804688 L0,10.9973046 C0,4.92366097 4.91714125,0 11.0040337,0 L22.0639648,0 L20.0563675,2 L11.0040337,2 C6.0249971,2 2,6.02494416 2,10.9973046 L2,19.9880373 L2,19.9880373 Z M50.1889425,2 L50.1889425,2 L48.1713867,0 L58.9930855,0 C65.0720365,0 70,4.92494056 70,10.9968026 L70,21.6386719 L68,19.6560749 L68,10.9968026 C68,6.02935988 63.9673161,2 58.9930855,2 L50.1889425,2 L50.1889425,2 Z M68,50.1139009 L68,50.1139009 L70,48.1142578 L70,58.998299 C70,65.0743707 65.065203,70 58.9969486,70 L48.1103516,70 L50.1107085,68 L58.9969486,68 C63.9638864,68 68,63.96655 68,58.998299 L68,50.1139009 L68,50.1139009 Z M20.080691,68 L20.080691,68 L22.1225586,70 L10.9997163,70 C4.92474074,70 0,65.0817799 0,59.0046161 L0,48.3310547 L2,50.2900456 L2,59.0046161 C2,63.9753229 6.0274219,68 10.9997163,68 L20.080691,68 L20.080691,68 Z" id="Shape" fill="#5E6064"></path>
                            <path d="M35,48 C42.1797017,48 48,42.1797017 48,35 C48,27.8202983 42.1797017,22 35,22 C27.8202983,22 22,27.8202983 22,35 C22,42.1797017 27.8202983,48 35,48 Z M35,50 C26.7157288,50 20,43.2842712 20,35 C20,26.7157288 26.7157288,20 35,20 C43.2842712,20 50,26.7157288 50,35 C50,43.2842712 43.2842712,50 35,50 Z" id="Oval-57-Copy-24" fill="rgb(52, 119, 225)" fill-rule="nonzero"></path>
                            <polygon id="Line-2" fill="rgb(52, 119, 225)" fill-rule="nonzero" points="34 29 34 41 36 41 36 29"></polygon>
                            <path d="M11,62 C12.6568542,62 14,60.6568542 14,59 C14,57.3431458 12.6568542,56 11,56 C9.34314575,56 8,57.3431458 8,59 C8,60.6568542 9.34314575,62 11,62 Z M11,64 C8.23857625,64 6,61.7614237 6,59 C6,56.2385763 8.23857625,54 11,54 C13.7614237,54 16,56.2385763 16,59 C16,61.7614237 13.7614237,64 11,64 Z" id="Oval-57-Copy-26" fill="rgb(52, 119, 225)" fill-rule="nonzero"></path>
                            <path d="M59,14 C60.6568542,14 62,12.6568542 62,11 C62,9.34314575 60.6568542,8 59,8 C57.3431458,8 56,9.34314575 56,11 C56,12.6568542 57.3431458,14 59,14 Z M59,16 C56.2385763,16 54,13.7614237 54,11 C54,8.23857625 56.2385763,6 59,6 C61.7614237,6 64,8.23857625 64,11 C64,13.7614237 61.7614237,16 59,16 Z" id="Oval-57-Copy-28" fill="#5E6064" fill-rule="nonzero"></path>
                        </g>
                    </g>
                </g>
            </g>
        </g>
    </g>
</svg>