<?xml version="1.0" encoding="UTF-8"?>
<svg width="70px" height="70px" viewBox="0 0 70 70" version="1.1" xmlns="http://www.w3.org/2000/svg" xmlns:xlink="http://www.w3.org/1999/xlink">
    <!-- Generator: sketchtool 51.2 (57519) - http://www.bohemiancoding.com/sketch -->
    <title>B58978CE-96FD-408A-9A22-FEB5E018BC4E</title>
    <desc>Created with sketchtool.</desc>
    <defs></defs>
    <g id="Page-1" stroke="none" stroke-width="1" fill="none" fill-rule="evenodd">
        <g id="Home_desktop_new" transform="translate(-686.000000, -8146.000000)">
            <g id="05" transform="translate(0.000000, 7690.000000)">
                <g id="Group-2" transform="translate(145.000000, 456.000000)">
                    <g id="reports" transform="translate(465.000000, 0.000000)">
                        <g transform="translate(76.000000, 0.000000)">
                            <polygon id="Line" fill="#5E6064" fill-rule="nonzero" points="54.2723236 55.6865372 68.2928932 69.7071068 69.7071068 68.2928932 55.6865372 54.2723236"></polygon>
                            <rect id="Rectangle-4" fill="#5E6064" x="0" y="0" width="50" height="2"></rect>
                            <rect id="Rectangle-4-Copy-5" fill="#5E6064" x="10" y="5" width="30" height="2"></rect>
                            <rect id="Rectangle-4-Copy-7" fill="#5E6064" x="10" y="63" width="30" height="2"></rect>
                            <rect id="Rectangle-4-Copy-8" fill="#5E6064" x="10" y="5" width="2" height="60"></rect>
                            <rect id="Rectangle-4-Copy-6" fill="#5E6064" x="38" y="5" width="2" height="6"></rect>
                            <rect id="Rectangle-4-Copy-9" fill="#5E6064" x="38" y="59" width="2" height="6"></rect>
                            <rect id="Rectangle-4-Copy" fill="#5E6064" x="0" y="68" width="50" height="2"></rect>
                            <rect id="Rectangle-4-Copy-2" fill="#5E6064" x="0" y="0" width="2" height="70"></rect>
                            <rect id="Rectangle-4-Copy-3" fill="#5E6064" x="48" y="0" width="2" height="15"></rect>
                            <rect id="Rectangle-4-Copy-4" fill="#5E6064" x="48" y="55" width="2" height="15"></rect>
                            <path d="M66,34 L64,34 L64,36 L66,36 L66,34 Z M62,34 L60,34 L60,36 L62,36 L62,34 Z M58,34 L56,34 L56,36 L58,36 L58,34 Z M54,34 L52,34 L52,36 L54,36 L54,34 Z M50,34 L48,34 L48,36 L50,36 L50,34 Z M46,34 L44,34 L44,36 L46,36 L46,34 Z M42,34 L40,34 L40,36 L42,36 L42,34 Z M38,34 L36,34 L36,36 L38,36 L38,34 Z M34,34 L32,34 L32,36 L34,36 L34,34 Z" id="Line-Copy-2" fill="#5E6064" fill-rule="nonzero" transform="translate(49.000000, 35.000000) rotate(90.000000) translate(-49.000000, -35.000000) "></path>
                            <g id="Group-12" transform="translate(10.000000, 10.000000)" fill-rule="nonzero">
                                <path d="M2.12173961,30.9110175 C2.93559025,30.3370913 3.92842918,30 5,30 C7.76142375,30 10,32.2385763 10,35 C10,37.221941 8.55065814,39.1053701 6.5457882,39.7564735 L5.92802742,37.8542717 C7.15300182,37.4564479 8,36.3095276 8,35 C8,33.3431458 6.65685425,32 5,32 C4.37088276,32 3.77579992,32.1918649 3.27435979,32.5454797 L2.12173961,30.9110175 Z M2.12173961,30.9110175 C2.93559025,30.3370913 3.92842918,30 5,30 C7.76142375,30 10,32.2385763 10,35 C10,37.221941 8.55065814,39.1053701 6.5457882,39.7564735 L5.92802742,37.8542717 C7.15300182,37.4564479 8,36.3095276 8,35 C8,33.3431458 6.65685425,32 5,32 C4.37088276,32 3.77579992,32.1918649 3.27435979,32.5454797 L2.12173961,30.9110175 Z" id="Oval-57-Copy-27" fill="rgb(52, 119, 225)"></path>
                                <path d="M25,38 C26.6568542,38 28,36.6568542 28,35 C28,33.3431458 26.6568542,32 25,32 C23.3431458,32 22,33.3431458 22,35 C22,36.6568542 23.3431458,38 25,38 Z M25,40 C22.2385763,40 20,37.7614237 20,35 C20,32.2385763 22.2385763,30 25,30 C27.7614237,30 30,32.2385763 30,35 C30,37.7614237 27.7614237,40 25,40 Z" id="Oval-57-Copy-26" fill="rgb(52, 119, 225)"></path>
                                <path d="M5,10 C5.59171193,10 6.15941732,10.1027842 6.68623586,10.2914723 C6.80069603,10.332468 6.91322613,10.3775187 7.02365306,10.4264514 C8.7769149,11.2033619 10,12.9588475 10,15 C10,17.7614237 7.76142375,20 5,20 C4.11522788,20 3.28413073,19.7701902 2.56314292,19.3670048 C2.44616238,19.3015879 2.33208049,19.2316068 2.22113829,19.1573025 L3.33409023,17.4955751 C3.40082202,17.5402692 3.46928168,17.5822503 3.53930286,17.621407 C3.98146503,17.8686696 4.47889124,18 5,18 C6.65685425,18 8,16.6568542 8,15 C8,13.80109 7.29094145,12.732456 6.21339452,12.2549703 C6.14723253,12.2256524 6.08001637,12.1987583 6.01185598,12.1743456 C5.69116947,12.0594868 5.35108677,12 5,12 L5,10 Z M5,10 C5.59171193,10 6.15941732,10.1027842 6.68623586,10.2914723 C6.80069603,10.332468 6.91322613,10.3775187 7.02365306,10.4264514 C8.7769149,11.2033619 10,12.9588475 10,15 C10,17.7614237 7.76142375,20 5,20 C4.11522788,20 3.28413073,19.7701902 2.56314292,19.3670048 C2.44616238,19.3015879 2.33208049,19.2316068 2.22113829,19.1573025 L3.33409023,17.4955751 C3.40082202,17.5402692 3.46928168,17.5822503 3.53930286,17.621407 C3.98146503,17.8686696 4.47889124,18 5,18 C6.65685425,18 8,16.6568542 8,15 C8,13.80109 7.29094145,12.732456 6.21339452,12.2549703 C6.14723253,12.2256524 6.08001637,12.1987583 6.01185598,12.1743456 C5.69116947,12.0594868 5.35108677,12 5,12 L5,10 Z" id="Oval-57-Copy-30" fill="rgb(52, 119, 225)"></path>
                                <path d="M25,18 C26.6568542,18 28,16.6568542 28,15 C28,13.3431458 26.6568542,12 25,12 C23.3431458,12 22,13.3431458 22,15 C22,16.6568542 23.3431458,18 25,18 Z M25,20 C22.2385763,20 20,17.7614237 20,15 C20,12.2385763 22.2385763,10 25,10 C27.7614237,10 30,12.2385763 30,15 C30,17.7614237 27.7614237,20 25,20 Z" id="Oval-57-Copy-29" fill="rgb(52, 119, 225)"></path>
                                <path d="M25,48 C37.7025491,48 48,37.7025491 48,25 C48,12.2974509 37.7025491,2 25,2 C12.2974509,2 2,12.2974509 2,25 C2,37.7025491 12.2974509,48 25,48 Z M25,50 C11.1928814,50 0,38.8071186 0,25 C0,11.1928814 11.1928814,0 25,0 C38.8071186,0 50,11.1928814 50,25 C50,38.8071186 38.8071186,50 25,50 Z" id="Shape" fill="#5E6064"></path>
                            </g>
                        </g>
                    </g>
                </g>
            </g>
        </g>
    </g>
</svg>