<?xml version="1.0" encoding="UTF-8"?>
<svg width="70px" height="70px" viewBox="0 0 70 70" version="1.1" xmlns="http://www.w3.org/2000/svg" xmlns:xlink="http://www.w3.org/1999/xlink">
    <!-- Generator: sketchtool 51.3 (57544) - http://www.bohemiancoding.com/sketch -->
    <title>37C6A6A2-B37B-4367-9A1C-40879EB3CD1C</title>
    <desc>Created with sketchtool.</desc>
    <defs></defs>
    <g id="Page-1" stroke="none" stroke-width="1" fill="none" fill-rule="evenodd">
        <g id="5_0_Company" transform="translate(-685.000000, -2449.000000)">
            <g id="Group-3" transform="translate(0.000000, 2059.000000)">
                <g id="sensor" transform="translate(685.000000, 390.000000)">
                    <path d="M35,69.5 L34,69.5 L34,67.5 L35,67.5 C35.6494658,67.5 36.2965942,67.4809623 36.9408538,67.4430352 L37.9391255,67.3842677 L38.0566605,69.3808111 L37.0583888,69.4395786 C36.3749996,69.4798092 35.688676,69.5 35,69.5 Z M42.1704519,68.7536332 L41.1920782,68.9604782 L40.7783881,67.0037307 L41.7567619,66.7968857 C42.3899444,66.66302 43.0180673,66.5103477 43.6404818,66.3391391 L44.6046695,66.0739185 L45.1351108,68.002294 L44.1709231,68.2675146 C43.5099143,68.4493394 42.8428573,68.6114751 42.1704519,68.7536332 Z M49.0265358,66.529073 L48.1130913,66.9360363 L47.2991648,65.1091472 L48.2126093,64.7021839 C48.8034109,64.4389665 49.386036,64.1581338 49.959767,63.8601131 L50.8471859,63.3991493 L51.7691136,65.1739871 L50.8816947,65.6349509 C50.2725213,65.951382 49.6538806,66.2495746 49.0265358,66.529073 Z M55.310211,62.8909754 L54.5022982,63.4802774 L53.3236941,61.8644518 L54.1316069,61.2751498 C54.6542638,60.893917 55.1655145,60.4971782 55.6646531,60.0855171 L56.4361236,59.449252 L57.7086538,60.992193 L56.9371833,61.6284581 C56.4074773,62.0653295 55.8649047,62.4863746 55.310211,62.8909754 Z M60.6273868,58.0977548 L59.9576629,58.840365 L58.4724426,57.500917 L59.1421666,56.7583069 C59.5754506,56.2778685 59.9943838,55.7846736 60.3983544,55.2794139 L61.022826,54.4983663 L62.5849211,55.7473094 L61.9604496,56.528357 C61.5317489,57.0645473 61.087179,57.5879234 60.6273868,58.0977548 Z M64.8903299,52.2396098 L64.3899265,53.1054021 L62.6583418,52.1045953 L63.1587452,51.2388029 C63.482466,50.6787049 63.7893998,50.1090092 64.0790841,49.5304392 L64.5267913,48.636259 L66.3151517,49.5316734 L65.8674445,50.4258537 C65.5598769,51.040141 65.2340077,51.6449823 64.8903299,52.2396098 Z M67.8422482,45.5952746 L67.5354238,46.5470408 L65.6318915,45.933392 L65.9387159,44.9816258 C66.1369932,44.3665716 66.3169022,43.7451615 66.4781412,43.1180656 L66.7271617,42.1495674 L68.6641581,42.6476083 L68.4151377,43.6161065 C68.2438978,44.282098 68.0528272,44.9420607 67.8422482,45.5952746 Z M69.308041,38.6603408 L69.2031305,39.6548224 L67.2141672,39.4450014 L67.3190777,38.4505197 C67.386784,37.808709 67.435589,37.1634403 67.4653208,36.5152732 L67.5111433,35.5163236 L69.5090425,35.6079686 L69.46322,36.6069182 C69.4316769,37.2945704 69.3798913,37.9792483 69.308041,38.6603408 Z M69.3193291,31.4483055 L69.4211008,32.4431133 L67.4314853,32.6466568 L67.3297135,31.651849 C67.263705,31.006623 67.1786223,30.3650174 67.0746688,29.7276263 L66.9137033,28.7406663 L68.8876233,28.4187353 L69.0485888,29.4056953 C69.1589481,30.0823633 69.2492662,30.7634488 69.3193291,31.4483055 Z M67.829015,24.3637644 L68.1370359,25.315144 L66.2342767,25.9311858 L65.9262558,24.9798062 C65.7268566,24.3639248 65.5090928,23.7546303 65.2733109,23.1526161 L64.9086284,22.2214842 L66.7708922,21.4921192 L67.1355747,22.4232511 C67.3859759,23.0625921 67.6172462,23.7096773 67.829015,24.3637644 Z M64.9017251,17.7801212 L65.401556,18.6462442 L63.66931,19.645906 L63.1694791,18.779783 C62.8462156,18.2196217 62.5062791,17.6692358 62.1501766,17.1293482 L61.599575,16.2945801 L63.2691113,15.1933768 L63.8197129,16.028145 C64.1977094,16.6012261 64.5585598,17.1854732 64.9017251,17.7801212 Z M60.6879379,11.9695624 L61.3557218,12.7139177 L59.8670114,14.0494854 L59.1992275,13.3051302 C58.7672217,12.8235885 58.3209884,12.3549384 57.8611723,11.8998488 L57.150422,11.1964044 L58.5573108,9.77490382 L59.2680611,10.4783482 C59.7559927,10.9612643 60.229512,11.4585712 60.6879379,11.9695624 Z M55.3206814,7.11666493 L56.1283735,7.70626948 L54.9491644,9.32165361 L54.1414723,8.73204906 C53.618979,8.35063581 53.0852607,7.98485864 52.5410356,7.63525988 L51.6996742,7.09478699 L52.78062,5.41206413 L53.6219814,5.95253702 C54.1996411,6.32361343 54.7661275,6.71184787 55.3206814,7.11666493 Z M49.0415045,3.47760023 L49.9547546,3.88499969 L49.1399556,5.71149981 L48.2267056,5.30410035 C47.6362163,5.040684 47.0377427,4.79495444 46.4319912,4.56729327 L45.4959185,4.21548663 L46.1995318,2.34334124 L47.1356045,2.69514788 C47.7788999,2.93691927 48.4144512,3.19787271 49.0415045,3.47760023 Z M42.1967106,1.25192912 L43.1749222,1.45953956 L42.7597013,3.41596273 L41.7814897,3.20835229 C41.1498477,3.07429592 40.5133382,2.95899681 39.8725811,2.86268704 L38.8836892,2.71405045 L39.1809624,0.736266672 L40.1698543,0.884903264 C40.8501577,0.987157098 41.5260004,1.10958114 42.1967106,1.25192912 Z M35.0923697,0.500121101 L36.0923663,0.502743452 L36.0871216,2.50273658 L35.087125,2.50011422 C35.0440143,2.50001982 35.0440143,2.50001982 35.0009123,2.50000001 C34.380047,2.5 33.7621085,2.51734688 33.1466511,2.5519306 L32.1482262,2.608034 L32.0360194,0.611184073 L33.0344443,0.555080676 C33.6872682,0.518397261 34.3426237,0.5 35.000939,0.500000013 C35.0466634,0.500021014 35.0466634,0.500021014 35.0923697,0.500121101 Z M27.9215112,1.22705579 L28.9004478,1.0228912 L29.308777,2.98076435 L28.3298404,3.18492894 C27.6956984,3.31718403 27.0665869,3.46828942 26.443155,3.6379757 L25.4782575,3.90060241 L24.9530041,1.97080738 L25.9179016,1.70818067 C26.5799882,1.52797332 27.2480915,1.36750254 27.9215112,1.22705579 Z M21.0573583,3.43368442 L21.9718881,3.0291661 L22.7809248,4.85822589 L21.8663949,5.26274421 C21.2747949,5.52442296 20.6913331,5.80374384 20.1167272,6.10028155 L19.2280857,6.55888409 L18.3108806,4.78160109 L19.1995221,4.32299856 C19.8096286,4.00814001 20.4291618,3.71155066 21.0573583,3.43368442 Z M14.7657889,7.05374728 L15.5752988,6.46664108 L16.7495112,8.08566091 L15.9400013,8.67276711 C15.4162273,9.0526401 14.9038225,9.44805634 14.4034937,9.85843377 L13.6303076,10.492613 L12.3619492,8.94624075 L13.1351353,8.31206156 C13.6661067,7.87655063 14.2099068,7.45690707 14.7657889,7.05374728 Z M9.43551007,11.8326924 L10.1072385,11.0918949 L11.5888335,12.4353516 L10.9171051,13.1761491 C10.4824892,13.6554536 10.0621906,14.1475558 9.65682309,14.6517645 L9.03024434,15.4311226 L7.47152811,14.1779651 L8.09810687,13.398607 C8.5282883,12.8635339 8.97430569,12.3413192 9.43551007,11.8326924 Z M5.15701332,17.6787357 L5.65978584,16.814317 L7.38862336,17.819862 L6.88585084,18.6842808 C6.56060602,19.2434755 6.25212024,19.8123095 5.96085821,20.3900594 L5.51069551,21.2830059 L3.7248024,20.3826805 L4.1749651,19.489734 C4.48420566,18.8763218 4.81172008,18.2723998 5.15701332,17.6787357 Z M2.1863157,24.3165296 L2.49571629,23.3655978 L4.39757988,23.984399 L4.08817929,24.9353308 C3.88824139,25.5498328 3.70665673,26.1707303 3.54372868,26.7973525 L3.29208572,27.7651726 L1.35644545,27.2618867 L1.60808841,26.2940665 C1.7811225,25.6285765 1.97397307,24.9691572 2.1863157,24.3165296 Z M0.701378009,31.2514569 L0.808837622,30.2572475 L2.79725652,30.4721667 L2.68979691,31.4663761 C2.62044416,32.1080234 2.56999265,32.7531621 2.53861544,33.4012311 L2.49025562,34.4000611 L0.492595662,34.3033415 L0.540955477,33.3045115 C0.574244958,32.6169462 0.627778986,31.9323903 0.701378009,31.2514569 Z M0.671747158,38.4633469 L0.572526868,37.4682814 L2.56265785,37.2698408 L2.66187814,38.2649063 C2.72617309,38.9097108 2.80950851,39.5509354 2.91168299,40.1879891 L3.07004507,41.1753702 L1.09528286,41.4920944 L0.936920774,40.5047133 C0.828451781,39.8284135 0.739989957,39.1477438 0.671747158,38.4633469 Z M2.14254453,45.5479843 L1.83710149,44.595774 L3.74152219,43.9848879 L4.04696523,44.9370982 C4.24466116,45.5534099 4.46073035,46.1631773 4.69482838,46.7657083 L5.05697956,47.6978276 L3.19274081,48.42213 L2.83058963,47.4900106 C2.58197593,46.8501186 2.35250474,46.2025295 2.14254453,45.5479843 Z M5.05282048,52.1408729 L4.55528217,51.2734309 L6.29016617,50.2783543 L6.78770449,51.1457963 C7.10966104,51.7071171 7.4483354,52.2586924 7.80322157,52.7997981 L8.35164639,53.6359979 L6.67924666,54.7328476 L6.13082184,53.8966477 C5.75411394,53.3222698 5.39460087,52.736756 5.05282048,52.1408729 Z M9.25168519,57.9629607 L8.58584604,57.2168653 L10.0780367,55.885187 L10.7438758,56.6312824 C11.1745496,57.113867 11.6194807,57.5836017 12.0780263,58.039817 L12.7869321,58.7451202 L11.3763258,60.1629318 L10.66742,59.4576286 C10.1808364,58.9735178 9.70869838,58.4750594 9.25168519,57.9629607 Z M14.6034971,62.8278284 L13.7974086,62.2360334 L14.9809986,60.6238564 L15.7870871,61.2156515 C16.3085076,61.5984557 16.8411925,61.9656578 17.3844244,62.3167136 L18.2243097,62.8594775 L17.1387819,64.5392481 L16.2988966,63.9964842 C15.7222951,63.6238637 15.156909,63.2341194 14.6034971,62.8278284 Z M20.8747404,66.4849024 L19.962583,66.0750623 L20.7822631,64.2507475 L21.6944205,64.6605876 C22.2841881,64.9255752 22.8819805,65.1728976 23.4870906,65.4021712 L24.4222166,65.7564864 L23.7135863,67.6267385 L22.7784602,67.2724233 C22.1358487,67.0289406 21.5010239,66.7662969 20.8747404,66.4849024 Z M27.7147203,68.7291512 L26.7370603,68.5189589 L27.157445,66.5636388 L28.1351051,66.7738311 C28.766448,66.9095669 29.4026961,67.0265497 30.0432282,67.1245456 L31.0317265,67.2757773 L30.729263,69.252774 L29.7407647,69.1015422 C29.0606916,68.9974969 28.3851191,68.8732839 27.7147203,68.7291512 Z M34.8170571,69.4995249 L33.8170706,69.4943297 L33.827461,67.4943567 L34.8274475,67.4995519 C34.9136481,67.4999251 34.9136481,67.4999251 34.999921,67.5 L35.999921,67.5000024 L35.999921,69.5000024 L34.9999162,69.5 C34.9084505,69.4999206 34.9084505,69.4999206 34.8170571,69.4995249 Z" id="Oval-14" fill="#75767A" fill-rule="nonzero"></path>
                    <path d="M35,56 L34,56 L34,54 L35,54 C35.6371462,54 36.2702967,53.9686742 36.8979767,53.906462 L37.8931007,53.8078306 L38.0903634,55.7980787 L37.0952394,55.89671 C36.4020323,55.965417 35.7030475,56 35,56 Z M42.2384032,54.718873 L41.2996848,55.0635579 L40.6103149,53.1861211 L41.5490333,52.8414361 C42.1443444,52.6228458 42.727793,52.3745207 43.2974301,52.0975351 L44.1967491,51.6602419 L45.0713354,53.45888 L44.1720164,53.8961731 C43.5420905,54.2024741 42.8968292,54.4771077 42.2384032,54.718873 Z M48.585599,51.0140147 L47.8233423,51.6612895 L46.5287927,50.1367761 L47.2910494,49.4895013 C47.7741365,49.079285 48.2366136,48.6452074 48.6766298,48.1890325 L49.3708743,47.4692932 L50.8103528,48.8577821 L50.1161084,49.5775214 C49.6300748,50.0814036 49.1192292,50.5608796 48.585599,51.0140147 Z M53.2491498,45.3977362 L52.7533336,46.2661637 L51.0164786,45.2745313 L51.5122948,44.4061038 C51.8263977,43.8559492 52.1128079,43.2903094 52.3703104,42.7111658 L52.7765876,41.7974159 L54.6040873,42.6099703 L54.1978101,43.5237202 C53.9130716,44.1641199 53.5964004,44.789523 53.2491498,45.3977362 Z M55.7225024,38.4215287 L55.5607359,39.4083578 L53.5870778,39.0848246 L53.7488443,38.0979956 C53.8509858,37.4748988 53.922262,36.8449609 53.9621421,36.2097668 L54.0248028,35.2117319 L56.0208726,35.3370534 L55.9582118,36.3350882 C55.9141595,37.0367363 55.8353984,37.7328263 55.7225024,38.4215287 Z M35,14 L36,14 L36,16 L35,16 C34.3628538,16 33.7297033,16.0313258 33.1020233,16.093538 L32.1068993,16.1921694 L31.9096366,14.2019213 L32.9047606,14.10329 C33.5979677,14.034583 34.2969525,14 35,14 Z M27.7615968,15.281127 L28.7003152,14.9364421 L29.3896851,16.8138789 L28.4509667,17.1585639 C27.8556556,17.3771542 27.272207,17.6254793 26.7025699,17.9024649 L25.8032509,18.3397581 L24.9286646,16.54112 L25.8279836,16.1038269 C26.4579095,15.7975259 27.1031708,15.5228923 27.7615968,15.281127 Z M21.414401,18.9859853 L22.1766577,18.3387105 L23.4712073,19.8632239 L22.7089506,20.5104987 C22.2258635,20.920715 21.7633864,21.3547926 21.3233702,21.8109675 L20.6291257,22.5307068 L19.1896472,21.1422179 L19.8838916,20.4224786 C20.3699252,19.9185964 20.8807708,19.4391204 21.414401,18.9859853 Z M16.7508502,24.6022638 L17.2466664,23.7338363 L18.9835214,24.7254687 L18.4877052,25.5938962 C18.1736023,26.1440508 17.8871921,26.7096906 17.6296896,27.2888342 L17.2234124,28.2025841 L15.3959127,27.3900297 L15.8021899,26.4762798 C16.0869284,25.8358801 16.4035996,25.210477 16.7508502,24.6022638 Z M14.2774976,31.5784713 L14.4392641,30.5916422 L16.4129222,30.9151754 L16.2511557,31.9020044 C16.1490142,32.5251012 16.077738,33.1550391 16.0378579,33.7902332 L15.9751972,34.7882681 L13.9791274,34.6629466 L14.0417882,33.6649118 C14.0858405,32.9632637 14.1646016,32.2671737 14.2774976,31.5784713 Z" id="Oval-12" fill="#75767A" fill-rule="nonzero" transform="translate(35.000000, 35.000000) rotate(44.000000) translate(-35.000000, -35.000000) "></path>
                    <path d="M35,56 L34,56 L34,54 L35,54 C35.637485,54 36.27097,53.9686409 36.8989776,53.9063627 L37.8940965,53.8076789 L38.0914641,55.7979166 L37.0963453,55.8966004 C36.4027758,55.9653802 35.7034215,56 35,56 Z M42.2375794,54.7191754 L41.2988465,55.0638209 L40.6095555,53.186355 L41.5482885,52.8417096 C42.1434362,52.6232076 42.7267295,52.3749877 43.2962209,52.098123 L44.195571,51.6608938 L45.0700295,53.459594 L44.1706794,53.8968232 C43.5409144,54.2029906 42.8958248,54.4775079 42.2375794,54.7191754 Z M48.5854705,51.0141239 L47.8232086,51.6613926 L46.5286712,50.1368688 L47.2909331,49.4896001 C47.774129,49.079298 48.236706,48.6451241 48.6768121,48.1888435 L49.3710467,47.4690946 L50.8105443,48.8575638 L50.1163097,49.5773126 C49.6301769,50.0813116 49.1192208,50.560894 48.5854705,51.0141239 Z M53.2490151,45.3979721 L52.7531877,46.2663931 L51.0163455,45.2747383 L51.512173,44.4063172 C51.8262569,43.8562123 52.112653,43.2906245 52.3701464,42.7115345 L52.7764432,41.7977933 L54.6039256,42.6103867 L54.1976288,43.5241279 C53.9129003,44.1644683 53.5962447,44.7898139 53.2490151,45.3979721 Z M55.7185117,38.4457841 L55.555587,39.4324226 L53.58231,39.1065732 L53.7452347,38.1199347 C53.8481135,37.496922 53.9201264,36.8670418 53.9607408,36.2318809 L54.0245541,35.2339191 L56.0204778,35.3615457 L55.9566645,36.3595075 C55.9118002,37.0611304 55.8322239,37.7571664 55.7185117,38.4457841 Z M35,14 L36,14 L36,16 L35,16 C34.3628538,16 33.7297033,16.0313258 33.1020233,16.093538 L32.1068993,16.1921694 L31.9096366,14.2019213 L32.9047606,14.10329 C33.5979677,14.034583 34.2969525,14 35,14 Z M27.7615968,15.281127 L28.7003152,14.9364421 L29.3896851,16.8138789 L28.4509667,17.1585639 C27.8556556,17.3771542 27.272207,17.6254793 26.7025699,17.9024649 L25.8032509,18.3397581 L24.9286646,16.54112 L25.8279836,16.1038269 C26.4579095,15.7975259 27.1031708,15.5228923 27.7615968,15.281127 Z M21.414401,18.9859853 L22.1766577,18.3387105 L23.4712073,19.8632239 L22.7089506,20.5104987 C22.2258635,20.920715 21.7633864,21.3547926 21.3233702,21.8109675 L20.6291257,22.5307068 L19.1896472,21.1422179 L19.8838916,20.4224786 C20.3699252,19.9185964 20.8807708,19.4391204 21.414401,18.9859853 Z M16.7508502,24.6022638 L17.2466664,23.7338363 L18.9835214,24.7254687 L18.4877052,25.5938962 C18.1736023,26.1440508 17.8871921,26.7096906 17.6296896,27.2888342 L17.2234124,28.2025841 L15.3959127,27.3900297 L15.8021899,26.4762798 C16.0869284,25.8358801 16.4035996,25.210477 16.7508502,24.6022638 Z M14.2774976,31.5784713 L14.4392641,30.5916422 L16.4129222,30.9151754 L16.2511557,31.9020044 C16.1490142,32.5251012 16.077738,33.1550391 16.0378579,33.7902332 L15.9751972,34.7882681 L13.9791274,34.6629466 L14.0417882,33.6649118 C14.0858405,32.9632637 14.1646016,32.2671737 14.2774976,31.5784713 Z" id="Oval-12" fill="#75767A" fill-rule="nonzero" transform="translate(34.999803, 35.000000) rotate(-47.000000) translate(-34.999803, -35.000000) "></path>
                    <circle id="Oval-13" fill="#0f4398" cx="35" cy="35" r="4"></circle>
                    <circle id="Oval-13" fill="#75767A" cx="21" cy="21" r="4"></circle>
                    <circle id="Oval-13" fill="#75767A" cx="49" cy="21" r="4"></circle>
                    <circle id="Oval-13" fill="#75767A" cx="21" cy="49" r="4"></circle>
                    <circle id="Oval-13" fill="#75767A" cx="49" cy="49" r="4"></circle>
                </g>
            </g>
        </g>
    </g>
</svg>