<?xml version="1.0" encoding="UTF-8"?>
<svg width="70px" height="70px" viewBox="0 0 70 70" version="1.1" xmlns="http://www.w3.org/2000/svg" xmlns:xlink="http://www.w3.org/1999/xlink">
    <!-- Generator: sketchtool 51.3 (57544) - http://www.bohemiancoding.com/sketch -->
    <title>EFDEA544-9E58-4D36-A738-3E2F5B066F35</title>
    <desc>Created with sketchtool.</desc>
    <defs></defs>
    <g id="Page-1" stroke="none" stroke-width="1" fill="none" fill-rule="evenodd">
        <g id="5_0_Company" transform="translate(-285.000000, -2449.000000)">
            <g id="Group-3" transform="translate(0.000000, 2059.000000)">
                <g id="Widgets" transform="translate(285.000000, 390.000000)">
                    <path d="M20.5928049,20.1407195 L21.8592805,18.5928049 L24.9551097,21.1257561 L23.6886341,22.6736707 L20.5928049,20.1407195 Z M26.010506,24.573384 L27.2769816,23.0254694 L30.3728108,25.5584206 L29.1063352,27.1063352 L26.010506,24.573384 Z M31.4282071,29.0060486 L32.6946827,27.458134 L34.4071951,28.8592805 L33.1407195,30.4071951 L31.4282071,29.0060486 Z" id="Path-2" fill="#75767A" fill-rule="nonzero"></path>
                    <path d="M48.1407195,18.5928049 L49.4071951,20.1407195 L46.3113659,22.6736707 L45.0448903,21.1257561 L48.1407195,18.5928049 Z M42.7230184,23.0254694 L43.989494,24.573384 L40.8936648,27.1063352 L39.6271892,25.5584206 L42.7230184,23.0254694 Z M37.3053173,27.458134 L38.5717929,29.0060486 L36.8592805,30.4071951 L35.5928049,28.8592805 L37.3053173,27.458134 Z" id="Path-3" fill="#75767A" fill-rule="nonzero"></path>
                    <path d="M35,26 C37.209139,26 39,27.790861 39,30 C39,32.209139 37.209139,34 35,34 C32.790861,34 31,32.209139 31,30 C31,27.790861 32.790861,26 35,26 Z" id="Rectangle-7" fill="#0f4398" fill-rule="nonzero"></path>
                    <path d="M35,28 C33.8954305,28 33,28.8954305 33,30 C33,31.1045695 33.8954305,32 35,32 C36.1045695,32 37,31.1045695 37,30 C37,28.8954305 36.1045695,28 35,28 Z" id="Path" fill="#23252C" fill-rule="nonzero"></path>
                    <rect id="Rectangle-7" fill="#75767A" x="56" y="6" width="8" height="8" rx="4"></rect>
                    <rect id="Rectangle-7" fill="#75767A" x="6" y="6" width="8" height="8" rx="4"></rect>
                    <rect id="Rectangle-7" fill="#75767A" x="31" y="56" width="8" height="8" rx="4"></rect>
                    <path d="M34,36 L36,36 L36,40 L34,40 L34,36 Z M34,43 L36,43 L36,47 L34,47 L34,43 Z" id="Path-4" fill="#75767A" fill-rule="nonzero"></path>
                    <path d="M10,20 C4.4771525,20 0,15.5228475 0,10 C0,4.4771525 4.4771525,0 10,0 C15.5228475,0 20,4.4771525 20,10 C20,15.5228475 15.5228475,20 10,20 Z M10,18 C14.418278,18 18,14.418278 18,10 C18,5.581722 14.418278,2 10,2 C5.581722,2 2,5.581722 2,10 C2,14.418278 5.581722,18 10,18 Z" id="Oval-11" fill="#75767A" fill-rule="nonzero"></path>
                    <path d="M60,20 C54.4771525,20 50,15.5228475 50,10 C50,4.4771525 54.4771525,0 60,0 C65.5228475,0 70,4.4771525 70,10 C70,15.5228475 65.5228475,20 60,20 Z M60,18 C64.418278,18 68,14.418278 68,10 C68,5.581722 64.418278,2 60,2 C55.581722,2 52,5.581722 52,10 C52,14.418278 55.581722,18 60,18 Z" id="Oval-11" fill="#75767A" fill-rule="nonzero"></path>
                    <path d="M35,70 C29.4771525,70 25,65.5228475 25,60 C25,54.4771525 29.4771525,50 35,50 C40.5228475,50 45,54.4771525 45,60 C45,65.5228475 40.5228475,70 35,70 Z M35,68 C39.418278,68 43,64.418278 43,60 C43,55.581722 39.418278,52 35,52 C30.581722,52 27,55.581722 27,60 C27,64.418278 30.581722,68 35,68 Z" id="Oval-11" fill="#75767A" fill-rule="nonzero"></path>
                </g>
            </g>
        </g>
    </g>
</svg>