<?xml version="1.0" encoding="UTF-8"?>
<svg width="100px" height="100px" viewBox="0 0 100 100" version="1.1" xmlns="http://www.w3.org/2000/svg" xmlns:xlink="http://www.w3.org/1999/xlink">
    <!-- Generator: sketchtool 51.2 (57519) - http://www.bohemiancoding.com/sketch -->
    <title>6158932D-A462-4E71-BBAF-993D0676B9CF</title>
    <desc>Created with sketchtool.</desc>
    <defs></defs>
    <g id="Symbols" stroke="none" stroke-width="1" fill="none" fill-rule="evenodd">
        <g id="ico100/profile">
            <g id="ic_profile">
                <rect id="Rectangle-5" x="0" y="0" width="100" height="100"></rect>
                <path d="M49.7733654,82.8080627 C68.017925,82.8080627 82.8080627,68.017925 82.8080627,49.7733654 C82.8080627,31.528806 68.017925,16.7386683 49.7733654,16.7386683 C31.528806,16.7386683 16.7386683,31.528806 16.7386683,49.7733654 C16.7386683,68.017925 31.528806,82.8080627 49.7733654,82.8080627 Z M49.7733654,84.546731 C30.5685661,84.546731 15,68.9781649 15,49.7733654 C15,30.5685661 30.5685661,15 49.7733654,15 C68.9781649,15 84.546731,30.5685661 84.546731,49.7733654 C84.546731,68.9781649 68.9781649,84.546731 49.7733654,84.546731 Z" id="Shape" fill="#3D4049" fill-rule="nonzero"></path>
                <path d="M27.623149,75.0378182 C28.4718123,66.4099056 34.2924003,59.0770442 42.4101679,56.2324993 L40.7558754,55.9528833 C43.3499307,58.0161693 46.5635948,59.159043 49.9472322,59.159043 C53.276655,59.159043 56.4422178,58.0526174 59.015818,56.0494833 L57.358445,56.3115807 C65.3657402,59.21371 71.0831326,66.4934549 71.9235819,75.0378182 L73.6668839,75.0378182 C72.8086943,65.6253089 66.5143215,57.7839859 57.9498222,54.679906 C55.7406509,56.3993907 52.963539,57.4235058 49.9472322,57.4235058 C46.8813771,57.4235058 44.06264,56.3654684 41.8362346,54.5946075 C33.1498516,57.6384006 26.7460108,65.5378491 25.879847,75.0378182 L27.6231359,75.0378182 L27.623149,75.0378182 Z" id="Shape" fill="#3D4049" fill-rule="nonzero"></path>
                <path d="M58.6482007,56.350206 C61.9324796,53.7322016 63.8842975,49.7695367 63.8842975,45.4876038 C63.8842975,37.8195179 57.6680858,31.6033062 50,31.6033062 C42.3319142,31.6033062 36.1157025,37.8195179 36.1157025,45.4876038 C36.1157025,49.6579574 37.9047934,53.5323563 40.9684411,56.1282234 L42.0903918,54.804095 C39.4165715,52.5385336 37.8512397,49.1487003 37.8512397,45.4876038 C37.8512397,38.7780286 43.290425,33.3388434 50,33.3388434 C56.709575,33.3388434 62.1487603,38.7780286 62.1487603,45.4876038 C62.1487603,49.2355404 60.4418656,52.7009518 57.566394,54.9930827 L58.6482007,56.350206 Z" id="Shape" fill="#3D4049" fill-rule="nonzero"></path>
                <circle id="Oval-1" fill="#F3660D" fill-rule="nonzero" cx="49.7733654" cy="45.252828" r="4.86827117"></circle>
            </g>
        </g>
    </g>
</svg>