<?xml version="1.0" encoding="UTF-8"?>
<svg width="100px" height="100px" viewBox="0 0 100 100" version="1.1" xmlns="http://www.w3.org/2000/svg" xmlns:xlink="http://www.w3.org/1999/xlink">
    <!-- Generator: sketchtool 51.2 (57519) - http://www.bohemiancoding.com/sketch -->
    <title>AC6458CF-BBA9-40A7-B89A-3865DDF9AF82</title>
    <desc>Created with sketchtool.</desc>
    <defs></defs>
    <g id="Symbols" stroke="none" stroke-width="1" fill="none" fill-rule="evenodd">
        <g id="ico100/achivement_icon">
            <rect id="Rectangle" fill="#FFFFFF" opacity="0" x="0" y="0" width="100" height="100"></rect>
            <g id="ic_achivement" transform="translate(15.000000, 15.000000)" fill-rule="nonzero">
                <path d="M34.7065396,59.5289256 C42.2787743,59.5289256 48.4172834,53.3904166 48.4172834,45.8181819 C48.4172834,38.2459471 42.2787743,32.1074381 34.7065396,32.1074381 C27.1343049,32.1074381 20.9957958,38.2459471 20.9957958,45.8181819 C20.9957958,53.3904166 27.1343049,59.5289256 34.7065396,59.5289256 Z M34.7065396,57.7933885 C28.0928156,57.7933885 22.731333,52.4319058 22.731333,45.8181819 C22.731333,39.2044578 28.0928156,33.8429753 34.7065396,33.8429753 C41.3202636,33.8429753 46.6817462,39.2044578 46.6817462,45.8181819 C46.6817462,52.4319058 41.3202636,57.7933885 34.7065396,57.7933885 Z" id="Shape" fill="#3D4049"></path>
                <path d="M34.6957954,69.2848873 C47.635952,69.2848873 58.1255475,58.781156 58.1255475,45.8247306 C58.1255475,32.8683051 47.635952,22.3645737 34.6957954,22.3645737 C21.7556389,22.3645737 11.2660434,32.8683051 11.2660434,45.8247306 C11.2660434,58.781156 21.7556389,69.2848873 34.6957954,69.2848873 Z M34.6957954,67.5493502 C22.7146732,67.5493502 13.0015805,57.8231681 13.0015805,45.8247306 C13.0015805,33.826293 22.7146732,24.1001109 34.6957954,24.1001109 C46.6769177,24.1001109 56.3900104,33.826293 56.3900104,45.8247306 C56.3900104,57.8231681 46.6769177,67.5493502 34.6957954,67.5493502 Z" id="Shape" fill="#3D4049"></path>
                <path d="M14.5689574,34.0705435 L1.73580748,21.5102429 L1.75054306,1.735587 L15.828094,1.73638135 C15.828094,1.73638135 33.9701434,19.8784308 38.1512928,24.0595802 L39.3785029,22.8323701 C35.1973536,18.6512207 17.0093539,0.463221004 16.8002964,0.254163537 C16.6375582,0.0914253573 16.4168379,0 16.1866914,0 L0.867768595,0 C0.388513233,0 1.23317334e-15,0.388513234 1.23317334e-15,0.867768595 L0,21.8729536 C0,22.1063099 0.0939858845,22.3298319 0.260744774,22.4930699 L13.6812681,35.6302432 L14.5689574,34.0705435 Z" id="Shape" fill="#3D4049"></path>
                <path d="M0.258031158,12.1916722 C0.300427591,12.2342609 0.300427591,12.2342609 0.501770619,12.4364998 C0.777297836,12.7132425 0.930960678,12.8675768 1.19061525,13.1283494 C1.93247931,13.8734079 2.75924103,14.7036134 3.64974422,15.59768 C6.19404712,18.1521641 8.73943334,20.7066517 11.1166627,23.0908643 C11.1296608,23.1039005 11.1296608,23.1039005 11.1426589,23.1169367 C14.0542684,26.0370844 16.5066995,28.4942403 18.3515766,30.3391173 L19.5787867,29.1119072 C17.7346254,27.2677459 15.2827268,24.8111235 12.3716644,21.8915247 C12.3586679,21.8784901 12.3586679,21.8784901 12.3456713,21.8654554 C9.96868376,19.4814853 7.42350504,16.9272059 4.87940235,14.3729228 C3.98896359,13.4789209 3.16226339,12.6487772 2.42045902,11.9037786 C2.16082964,11.6430312 2.00718044,11.4887108 1.73168864,11.2120037 C1.5303795,11.0097986 1.5303795,11.0097986 1.48801417,10.9672412 L0.258031158,12.1916722 Z" id="Shape" fill="#3D4049"></path>
                <g id="Shape-+-Shape" transform="translate(34.421487, 0.000000)" fill="#3D4049">
                    <path d="M34.681404,22.4930699 C34.8481629,22.3298319 34.9421487,22.1063099 34.9421487,21.8729535 L34.9421487,0.867768595 C34.9421487,0.388513233 34.5536356,0 34.0743802,0 L18.7554575,0 C18.5253109,0 18.3045905,0.0914253573 18.1418524,0.254163537 C17.9327948,0.463221004 2.41384165,15.9821742 0.151246962,18.244769 L1.37845708,19.4719791 C3.64105177,17.2093844 19.1243138,1.73564575 19.1243138,1.73564575 L33.2066115,1.73979073 L33.219425,21.4955337 C33.219425,21.4955337 22.7717205,31.722654 20.3408941,34.1021578 L21.1000167,35.7853736 C23.530843,33.4058698 34.5598626,22.6120452 34.681404,22.4930699 Z" id="Shape"></path>
                    <polygon id="Shape" points="29.8210126 0.142213331 6.18180481 23.4109219 7.39928392 24.6477864 31.0384916 1.37907791"></polygon>
                </g>
                <path d="M34.7107438,50.6907834 C37.3945739,50.6907834 39.570248,48.5121773 39.570248,45.8247306 C39.570248,43.1372837 37.3945739,40.9586777 34.7107438,40.9586777 C32.0269138,40.9586777 29.8512397,43.1372837 29.8512397,45.8247306 C29.8512397,48.5121773 32.0269138,50.6907834 34.7107438,50.6907834 Z" id="Oval-29-Copy-3" fill="#F3660D"></path>
            </g>
        </g>
    </g>
</svg>