<?xml version="1.0" encoding="UTF-8"?>
<svg width="100px" height="100px" viewBox="0 0 100 100" version="1.1" xmlns="http://www.w3.org/2000/svg" xmlns:xlink="http://www.w3.org/1999/xlink">
    <!-- Generator: sketchtool 51.2 (57519) - http://www.bohemiancoding.com/sketch -->
    <title>138483E7-2CBB-43AA-BDEB-BE1DE6E7CC46</title>
    <desc>Created with sketchtool.</desc>
    <defs></defs>
    <g id="Symbols" stroke="none" stroke-width="1" fill="none" fill-rule="evenodd">
        <g id="ico100/analitics_icn" fill-rule="nonzero">
            <g id="ic_analitics" transform="translate(15.000000, 15.000000)">
                <path d="M35,70 C54.3299662,70 70,54.3299662 70,35 C70,15.6700337 54.3299662,0 35,0 C15.6700337,0 0,15.6700337 0,35 C0,54.3299662 15.6700337,70 35,70 Z M35,68.241206 C16.6413889,68.241206 1.75879397,53.3586111 1.75879397,35 C1.75879397,16.6413889 16.6413889,1.75879397 35,1.75879397 C53.3586111,1.75879397 68.241206,16.6413889 68.241206,35 C68.241206,53.3586111 53.3586111,68.241206 35,68.241206 Z" id="Shape" fill="#3D4049"></path>
                <path d="M0.482325345,36.658873 C0.979588354,37.1612151 4.10290459,40.282528 9.00905131,45.1816166 C9.01203452,45.1845955 9.01203452,45.1845955 9.01501772,45.1875744 C10.8956233,47.0654737 12.9105503,49.077129 14.9254763,51.0885354 C15.6306995,51.7925267 16.2855499,52.4462023 16.8732368,53.032811 C17.2006632,53.3596344 17.2006632,53.3596344 17.4189489,53.5775129 C17.5784665,53.7367312 17.5784665,53.7367312 17.6120526,53.7702536 L18.8483119,52.5316402 C18.8147349,52.4981269 18.8147349,52.4981269 18.6552271,52.3389186 C18.436952,52.1210505 18.436952,52.1210505 18.1095369,51.7942384 C17.5218675,51.2076472 16.8670353,50.5539897 16.1618309,49.8500172 C14.1469638,47.8386697 12.1320978,45.8270752 10.2515633,43.9492468 C10.2485802,43.9462681 10.2485802,43.9462681 10.2455971,43.9432893 C5.34728531,39.0520243 2.21941429,35.9261596 1.72603377,35.4277396 L0.482325345,36.658873 Z M23.7618971,53.107183 C24.1028514,52.6685065 24.1028514,52.6685065 25.4666681,50.9138 C27.1714393,48.7204171 27.1714393,48.7204171 29.2171645,46.0883574 C31.2628898,43.4562977 31.2628898,43.4562977 32.9676609,41.2629147 L31.5859302,40.1889872 C29.8811592,42.3823702 29.8811592,42.3823702 27.8354338,45.0144298 C25.7897086,47.6464895 25.7897086,47.6464895 24.0849376,49.8398725 C22.7211207,51.5945789 22.7211207,51.5945789 22.3801664,52.0332555 L23.7618971,53.107183 Z M56.6287522,33.8285719 C58.3839149,34.4036328 58.3839149,34.4036328 59.9053596,34.9021183 L60.450229,33.2391038 C58.9287842,32.7406183 58.9287842,32.7406183 57.1736216,32.1655574 L56.6287522,33.8285719 Z M65.3973672,32.191799 C66.4373703,30.1125377 66.4373703,30.1125377 67.4773732,28.0332763 C67.9973747,26.9936456 67.9973747,26.9936456 68.5173762,25.9540149 L66.9522407,25.1711669 C66.4322392,26.2107977 66.4322392,26.2107977 65.9122378,27.2504283 C64.8722348,29.3296897 64.8722348,29.3296897 63.8322317,31.4089511 L65.3973672,32.191799 Z" id="Shape" fill="#3D4049"></path>
                <path d="M20.825,57.6519201 C22.7608683,57.6519201 24.325,56.0648717 24.325,54.1134601 C24.325,52.1620484 22.7608683,50.575 20.825,50.575 C18.8891317,50.575 17.325,52.1620484 17.325,54.1134601 C17.325,56.0648717 18.8891317,57.6519201 20.825,57.6519201 Z M20.825,55.9019201 C19.8613735,55.9019201 19.075,55.1040252 19.075,54.1134601 C19.075,53.1228949 19.8613735,52.325 20.825,52.325 C21.7886265,52.325 22.575,53.1228949 22.575,54.1134601 C22.575,55.1040252 21.7886265,55.9019201 20.825,55.9019201 Z" id="Shape" fill="#3D4049"></path>
                <path d="M62.825,37.7019201 C64.7608683,37.7019201 66.325,36.1148717 66.325,34.1634601 C66.325,32.2120484 64.7608683,30.625 62.825,30.625 C60.8891317,30.625 59.325,32.2120484 59.325,34.1634601 C59.325,36.1148717 60.8891317,37.7019201 62.825,37.7019201 Z M62.825,35.9519201 C61.8613735,35.9519201 61.075,35.1540252 61.075,34.1634601 C61.075,33.1728949 61.8613735,32.375 62.825,32.375 C63.7886265,32.375 64.575,33.1728949 64.575,34.1634601 C64.575,35.1540252 63.7886265,35.9519201 62.825,35.9519201 Z" id="Shape" fill="#3D4049"></path>
                <path d="M42,42.1435842 C49.6692645,42.1435842 55.8812319,35.8406024 55.8812319,28.0717921 C55.8812319,20.3029818 49.6692645,14 42,14 C34.3307355,14 28.1187681,20.3029818 28.1187681,28.0717921 C28.1187681,35.8406024 34.3307355,42.1435842 42,42.1435842 Z M42,40.3935842 C35.3029773,40.3935842 29.8687681,34.8797559 29.8687681,28.0717921 C29.8687681,21.2638284 35.3029773,15.75 42,15.75 C48.6970227,15.75 54.1312319,21.2638284 54.1312319,28.0717921 C54.1312319,34.8797559 48.6970227,40.3935842 42,40.3935842 Z" id="Shape" fill="#3D4049"></path>
                <ellipse id="Oval-1" fill="#F3660D" cx="42" cy="28.0717921" rx="4.9" ry="4.97179209"></ellipse>
            </g>
        </g>
    </g>
</svg>