<?xml version="1.0" encoding="UTF-8"?>
<svg width="100px" height="100px" viewBox="0 0 100 100" version="1.1" xmlns="http://www.w3.org/2000/svg" xmlns:xlink="http://www.w3.org/1999/xlink">
    <!-- Generator: sketchtool 51.2 (57519) - http://www.bohemiancoding.com/sketch -->
    <title>7945D685-F4DB-42BD-861C-48BBAAF41A66</title>
    <desc>Created with sketchtool.</desc>
    <defs></defs>
    <g id="Symbols" stroke="none" stroke-width="1" fill="none" fill-rule="evenodd">
        <g id="alarm_icon" fill-rule="nonzero">
            <g transform="translate(15.350000, 14.100000)">
                <path d="M34.65,69.9536359 C53.6087875,69.9536359 68.9791667,54.7116532 68.9791667,35.9081814 C68.9791667,17.1047095 53.6087875,1.8627268 34.65,1.8627268 C15.6912125,1.8627268 0.320833333,17.1047095 0.320833333,35.9081814 C0.320833333,54.7116532 15.6912125,69.9536359 34.65,69.9536359 Z M34.65,68.026978 C16.75946,68.026978 2.25755699,53.6462164 2.25755699,35.9081814 C2.25755699,18.1701463 16.75946,3.78938468 34.65,3.78938468 C52.54054,3.78938468 67.042443,18.1701463 67.042443,35.9081814 C67.042443,53.6462164 52.54054,68.026978 34.65,68.026978 Z" id="Shape" fill="#3D4049"></path>
                <path d="M76.880444,36.2994873 C76.880444,26.0810671 73.1180102,16.4376926 66.4167734,8.93280342 L64.9593157,10.2127693 C71.3483607,17.3680266 74.9336738,26.5574288 74.9336738,36.2994873 C74.9336738,48.4976885 69.296551,59.7768382 59.8117298,67.2142791 L61.0191655,68.7287516 C70.9658342,60.9291569 76.880444,49.0947917 76.880444,36.2994873 Z" id="Shape" fill="#3D4049"></path>
                <polygon id="Shape" fill="#3D4049" points="61.4613942 66.1689762 57.3454899 61.0534321 55.8237885 62.257621 59.9396929 67.3731651"></polygon>
                <path d="M62.283928,10.9510555 C65.251604,10.9510555 67.6586323,8.57149355 67.6586323,5.63461865 C67.6586323,2.69774377 65.251604,0.318181818 62.283928,0.318181818 C59.3162519,0.318181818 56.9092237,2.69774377 56.9092237,5.63461865 C56.9092237,8.57149355 59.3162519,10.9510555 62.283928,10.9510555 Z M62.283928,9.02037427 C60.390041,9.02037427 58.8559939,7.50383195 58.8559939,5.63461865 C58.8559939,3.76540537 60.390041,2.24886304 62.283928,2.24886304 C64.1778149,2.24886304 65.7118621,3.76540537 65.7118621,5.63461865 C65.7118621,7.50383195 64.1778149,9.02037427 62.283928,9.02037427 Z" id="Shape" fill="#3D4049"></path>
                <ellipse id="Oval-12" fill="#F3660D" cx="34.7786665" cy="36.0357845" rx="5.45095666" ry="5.40590744"></ellipse>
            </g>
        </g>
    </g>
</svg>