<?xml version="1.0" encoding="UTF-8"?>
<svg width="100px" height="100px" viewBox="0 0 100 100" version="1.1" xmlns="http://www.w3.org/2000/svg" xmlns:xlink="http://www.w3.org/1999/xlink">
    <!-- Generator: sketchtool 51.2 (57519) - http://www.bohemiancoding.com/sketch -->
    <title>EF78987F-57D2-4141-B0B5-078C75E7F64C</title>
    <desc>Created with sketchtool.</desc>
    <defs></defs>
    <g id="Symbols" stroke="none" stroke-width="1" fill="none" fill-rule="evenodd">
        <g id="analitics_icon">
            <g transform="translate(15.000000, 15.000000)">
                <path d="M35,70 C54.3299662,70 70,54.3299662 70,35 C70,15.6700337 54.3299662,0 35,0 C15.6700337,0 0,15.6700337 0,35 C0,54.3299662 15.6700337,70 35,70 Z M35,68.241206 C16.6413889,68.241206 1.75879397,53.3586111 1.75879397,35 C1.75879397,16.6413889 16.6413889,1.75879397 35,1.75879397 C53.3586111,1.75879397 68.241206,16.6413889 68.241206,35 C68.241206,53.3586111 53.3586111,68.241206 35,68.241206 Z" id="Shape" fill="#3D4049" fill-rule="nonzero"></path>
                <path d="M28.7143471,31.9157547 C28.5153921,32.3204562 28.3543708,32.7471728 28.2359216,33.1912661 C24.9688548,31.6232331 23.5477178,29.4715208 23.5477178,25.7815631 C23.5477178,19.4689379 27.9792531,16.0621242 34.253112,16.0621242 L34.253112,10 L35.4979253,10 L35.4979253,16.1122244 C39.3817427,16.4128257 42.3692946,17.9659319 44.8091286,19.9699399 L44.0124481,21.0721443 C41.473029,18.9178357 37.9875519,17.4148297 34.253112,17.4148297 C29.1244813,17.4148297 24.8921162,19.9699399 24.8921162,25.7815631 C24.8921162,28.8486371 26.0916264,30.6130017 28.7143471,31.9157547 Z M41.9008392,36.1807408 C45.3687286,37.8758811 47,40.2010449 47,43.9679359 C47,49.9799599 42.4190871,54.0380762 35.4979253,54.1883768 L35.4979253,60 L34.253112,60 L34.253112,54.1382766 C29.473029,53.9378758 25.9377593,52.3346693 23,49.7795591 L23.9460581,48.6773547 C26.7344398,51.2825651 30.9170124,52.8356713 35.1991701,52.8356713 C40.9751037,52.8356713 45.7053942,49.7795591 45.7053942,43.9679359 C45.7053942,40.9761358 44.3181898,38.9923961 41.5317962,37.5223049 C41.6973445,37.0938863 41.8219576,36.6450995 41.9008392,36.1807408 Z" id="Combined-Shape" stroke="#3D4049" stroke-width="0.7" fill="#3D4049"></path>
                <circle id="Oval-1" fill="#F3660D" fill-rule="nonzero" cx="35" cy="35" r="5"></circle>
            </g>
        </g>
    </g>
</svg>