<?xml version="1.0" encoding="UTF-8"?>
<svg width="100px" height="100px" viewBox="0 0 100 100" version="1.1" xmlns="http://www.w3.org/2000/svg" xmlns:xlink="http://www.w3.org/1999/xlink">
    <!-- Generator: sketchtool 51.2 (57519) - http://www.bohemiancoding.com/sketch -->
    <title>91F44264-84DC-428B-8E10-633AF22EF9CF</title>
    <desc>Created with sketchtool.</desc>
    <defs></defs>
    <g id="Symbols" stroke="none" stroke-width="1" fill="none" fill-rule="evenodd">
        <g id="ico100/attachment">
            <g id="ic_attachment">
                <rect id="Rectangle" fill="#FFFFFF" opacity="0" x="0" y="0" width="100" height="100"></rect>
                <path d="M71.3257925,83.427165 L82.349102,72.2552061 C84.5372081,70.0375515 84.5443288,66.4416119 82.3624605,64.230137 L81.865822,63.7268438 C80.808519,62.6551964 79.3944834,62.0625 77.8935316,62.0625 C76.385164,62.0625 74.9621314,62.6600998 73.8973124,63.7392973 L62.9455178,74.7185116 C61.2734105,76.4129973 61.2683065,79.1540748 62.9329399,80.8414258 L63.2763659,81.1894463 C64.1047745,82.0290073 65.2580586,82.50767 66.4475256,82.50767 C67.595466,82.50767 68.6676689,82.0688034 69.4552676,81.2707866 L79.2909374,71.3024213 C80.4166226,70.1614084 80.4197044,68.3137553 79.2956056,67.1746571 L79.1125979,66.9890411 C78.5655631,66.434683 77.8314374,66.1271331 77.054441,66.1272259 C76.2746479,66.1272259 75.5373971,66.436829 74.9877298,66.9939673 L65.8967076,76.2076389 L67.2313865,77.524551 L76.3224413,68.3108463 C76.5205223,68.110073 76.7773363,68.0022259 77.0545528,68.0022259 C77.3294689,68.002193 77.5829683,68.1083924 77.777706,68.3057371 L77.9607279,68.4913676 C78.3636141,68.8996299 78.3624898,69.5737466 77.956218,69.9855504 L68.1206745,79.9537878 C67.6890826,80.3910885 67.0988705,80.63267 66.4475256,80.63267 C65.757917,80.63267 65.0858528,80.3537344 64.6109988,79.8724876 L64.2676326,79.5245279 C63.3245016,78.5685258 63.3274206,77.0009426 64.2765674,76.039082 L75.2283973,65.059832 C75.9452158,64.3333539 76.8878418,63.9375 77.8935316,63.9375 C78.8922554,63.9375 79.8257229,64.3287651 80.5311483,65.043761 L81.0277861,65.5470536 C82.4880673,67.0271499 82.4832704,69.4496115 81.014421,70.9382963 L69.9911178,82.1102488 L71.3257925,83.427165 Z" id="Shape" fill="#3D4049" fill-rule="nonzero"></path>
                <path d="M80.6125,51.332938 C80.6460669,50.744215 80.6629108,50.1530735 80.6629108,49.559981 C80.6629108,32.5667466 66.8445413,18.792218 49.8002054,18.792218 C32.7558696,18.792218 18.9375,32.5667466 18.9375,49.559981 C18.9375,66.5532152 32.7558696,80.3277439 49.8002054,80.3277439 C50.460941,80.3277439 51.1192523,80.3070311 51.7744953,80.2657729 L51.6566666,78.3944789 C51.0406441,78.4332675 50.4216285,78.4527439 49.8002054,78.4527439 C33.790072,78.4527439 20.8125,65.5163452 20.8125,49.559981 C20.8125,33.6036166 33.790072,20.667218 49.8002054,20.667218 C65.8103388,20.667218 78.7879108,33.6036166 78.7879108,49.559981 C78.7879108,50.1174689 78.772081,50.6730184 78.7405403,51.2262056 L80.6125,51.332938 Z" id="Shape" fill="#3D4049" fill-rule="nonzero"></path>
                <path d="M72.9375,93.5625 C84.3277092,93.5625 93.5625,84.329041 93.5625,72.9375 C93.5625,61.545959 84.3277092,52.3125 72.9375,52.3125 C61.5472907,52.3125 52.3125,61.545959 52.3125,72.9375 C52.3125,84.329041 61.5472907,93.5625 72.9375,93.5625 Z M72.9375,91.6875 C62.5783607,91.6875 54.1818209,83.292171 54.1818209,72.9375 C54.1818209,62.582829 62.5783607,54.1875 72.9375,54.1875 C83.2966392,54.1875 91.6931791,62.582829 91.6931791,72.9375 C91.6931791,83.292171 83.2966392,91.6875 72.9375,91.6875 Z" id="Shape" fill="#3D4049" fill-rule="nonzero"></path>
                <circle id="Oval-12" fill="#F3660D" fill-rule="nonzero" cx="49.75611" cy="49.610828" r="4.86436674"></circle>
            </g>
        </g>
    </g>
</svg>