<?xml version="1.0" encoding="UTF-8"?>
<svg width="100px" height="100px" viewBox="0 0 100 100" version="1.1" xmlns="http://www.w3.org/2000/svg" xmlns:xlink="http://www.w3.org/1999/xlink">
    <!-- Generator: sketchtool 51.2 (57519) - http://www.bohemiancoding.com/sketch -->
    <title>358DC53C-B5C8-41A3-8478-FC2418782744</title>
    <desc>Created with sketchtool.</desc>
    <defs></defs>
    <g id="Symbols" stroke="none" stroke-width="1" fill="none" fill-rule="evenodd">
        <g id="ico100/calendar">
            <g id="ic_calendar">
                <rect id="Rectangle-5" x="0" y="0" width="100" height="100"></rect>
                <path d="M50,85 C69.3299662,85 85,69.3299662 85,50 C85,30.6700338 69.3299662,15 50,15 C30.6700338,15 15,30.6700338 15,50 C15,69.3299662 30.6700338,85 50,85 Z M50,83.241206 C31.6413889,83.241206 16.758794,68.3586111 16.758794,50 C16.758794,31.6413889 31.6413889,16.758794 50,16.758794 C68.3586111,16.758794 83.241206,31.6413889 83.241206,50 C83.241206,68.3586111 68.3586111,83.241206 50,83.241206 Z" id="Shape" fill="#3D4049" fill-rule="nonzero"></path>
                <polygon id="Shape" fill="#3D4049" fill-rule="nonzero" points="27.95 33.375 33.2 33.375 33.2 31.625 27.95 31.625"></polygon>
                <polygon id="Shape" fill="#3D4049" fill-rule="nonzero" points="40.9 33.375 46.15 33.375 46.15 31.625 40.9 31.625"></polygon>
                <polygon id="Shape" fill="#3D4049" fill-rule="nonzero" points="53.85 33.375 59.1 33.375 59.1 31.625 53.85 31.625"></polygon>
                <polygon id="Shape" fill="#3D4049" fill-rule="nonzero" points="66.45 33.375 71.7 33.375 71.7 31.625 66.45 31.625"></polygon>
                <path d="M69.075,56.825 C71.0079966,56.825 72.575,55.2579966 72.575,53.325 C72.575,51.3920034 71.0079966,49.825 69.075,49.825 C67.1420034,49.825 65.575,51.3920034 65.575,53.325 C65.575,55.2579966 67.1420034,56.825 69.075,56.825 Z M69.075,55.075 C68.1085017,55.075 67.325,54.2914983 67.325,53.325 C67.325,52.3585017 68.1085017,51.575 69.075,51.575 C70.0414983,51.575 70.825,52.3585017 70.825,53.325 C70.825,54.2914983 70.0414983,55.075 69.075,55.075 Z" id="Shape" fill="#3D4049" fill-rule="nonzero"></path>
                <path d="M69.075,67.325 C71.0079966,67.325 72.575,65.7579966 72.575,63.825 C72.575,61.8920034 71.0079966,60.325 69.075,60.325 C67.1420034,60.325 65.575,61.8920034 65.575,63.825 C65.575,65.7579966 67.1420034,67.325 69.075,67.325 Z M69.075,65.575 C68.1085017,65.575 67.325,64.7914983 67.325,63.825 C67.325,62.8585017 68.1085017,62.075 69.075,62.075 C70.0414983,62.075 70.825,62.8585017 70.825,63.825 C70.825,64.7914983 70.0414983,65.575 69.075,65.575 Z" id="Shape" fill="#3D4049" fill-rule="nonzero"></path>
                <path d="M56.475,46.325 C58.4079966,46.325 59.975,44.7579966 59.975,42.825 C59.975,40.8920034 58.4079966,39.325 56.475,39.325 C54.5420034,39.325 52.975,40.8920034 52.975,42.825 C52.975,44.7579966 54.5420034,46.325 56.475,46.325 Z M56.475,44.575 C55.5085017,44.575 54.725,43.7914983 54.725,42.825 C54.725,41.8585017 55.5085017,41.075 56.475,41.075 C57.4414983,41.075 58.225,41.8585017 58.225,42.825 C58.225,43.7914983 57.4414983,44.575 56.475,44.575 Z" id="Shape" fill="#3D4049" fill-rule="nonzero"></path>
                <path d="M56.475,56.825 C58.4079966,56.825 59.975,55.2579966 59.975,53.325 C59.975,51.3920034 58.4079966,49.825 56.475,49.825 C54.5420034,49.825 52.975,51.3920034 52.975,53.325 C52.975,55.2579966 54.5420034,56.825 56.475,56.825 Z M56.475,55.075 C55.5085017,55.075 54.725,54.2914983 54.725,53.325 C54.725,52.3585017 55.5085017,51.575 56.475,51.575 C57.4414983,51.575 58.225,52.3585017 58.225,53.325 C58.225,54.2914983 57.4414983,55.075 56.475,55.075 Z" id="Shape" fill="#3D4049" fill-rule="nonzero"></path>
                <path d="M56.475,67.325 C58.4079966,67.325 59.975,65.7579966 59.975,63.825 C59.975,61.8920034 58.4079966,60.325 56.475,60.325 C54.5420034,60.325 52.975,61.8920034 52.975,63.825 C52.975,65.7579966 54.5420034,67.325 56.475,67.325 Z M56.475,65.575 C55.5085017,65.575 54.725,64.7914983 54.725,63.825 C54.725,62.8585017 55.5085017,62.075 56.475,62.075 C57.4414983,62.075 58.225,62.8585017 58.225,63.825 C58.225,64.7914983 57.4414983,65.575 56.475,65.575 Z" id="Shape" fill="#3D4049" fill-rule="nonzero"></path>
                <path d="M30.575,46.325 C32.5079966,46.325 34.075,44.7579966 34.075,42.825 C34.075,40.8920034 32.5079966,39.325 30.575,39.325 C28.6420034,39.325 27.075,40.8920034 27.075,42.825 C27.075,44.7579966 28.6420034,46.325 30.575,46.325 Z M30.575,44.575 C29.6085017,44.575 28.825,43.7914983 28.825,42.825 C28.825,41.8585017 29.6085017,41.075 30.575,41.075 C31.5414983,41.075 32.325,41.8585017 32.325,42.825 C32.325,43.7914983 31.5414983,44.575 30.575,44.575 Z" id="Shape" fill="#3D4049" fill-rule="nonzero"></path>
                <path d="M30.575,56.825 C32.5079966,56.825 34.075,55.2579966 34.075,53.325 C34.075,51.3920034 32.5079966,49.825 30.575,49.825 C28.6420034,49.825 27.075,51.3920034 27.075,53.325 C27.075,55.2579966 28.6420034,56.825 30.575,56.825 Z M30.575,55.075 C29.6085017,55.075 28.825,54.2914983 28.825,53.325 C28.825,52.3585017 29.6085017,51.575 30.575,51.575 C31.5414983,51.575 32.325,52.3585017 32.325,53.325 C32.325,54.2914983 31.5414983,55.075 30.575,55.075 Z" id="Shape" fill="#3D4049" fill-rule="nonzero"></path>
                <path d="M30.575,67.325 C32.5079966,67.325 34.075,65.7579966 34.075,63.825 C34.075,61.8920034 32.5079966,60.325 30.575,60.325 C28.6420034,60.325 27.075,61.8920034 27.075,63.825 C27.075,65.7579966 28.6420034,67.325 30.575,67.325 Z M30.575,65.575 C29.6085017,65.575 28.825,64.7914983 28.825,63.825 C28.825,62.8585017 29.6085017,62.075 30.575,62.075 C31.5414983,62.075 32.325,62.8585017 32.325,63.825 C32.325,64.7914983 31.5414983,65.575 30.575,65.575 Z" id="Shape" fill="#3D4049" fill-rule="nonzero"></path>
                <path d="M43.525,46.325 C45.4579966,46.325 47.025,44.7579966 47.025,42.825 C47.025,40.8920034 45.4579966,39.325 43.525,39.325 C41.5920034,39.325 40.025,40.8920034 40.025,42.825 C40.025,44.7579966 41.5920034,46.325 43.525,46.325 Z M43.525,44.575 C42.5585017,44.575 41.775,43.7914983 41.775,42.825 C41.775,41.8585017 42.5585017,41.075 43.525,41.075 C44.4914983,41.075 45.275,41.8585017 45.275,42.825 C45.275,43.7914983 44.4914983,44.575 43.525,44.575 Z" id="Shape" fill="#3D4049" fill-rule="nonzero"></path>
                <path d="M43.525,56.825 C45.4579966,56.825 47.025,55.2579966 47.025,53.325 C47.025,51.3920034 45.4579966,49.825 43.525,49.825 C41.5920034,49.825 40.025,51.3920034 40.025,53.325 C40.025,55.2579966 41.5920034,56.825 43.525,56.825 Z M43.525,55.075 C42.5585017,55.075 41.775,54.2914983 41.775,53.325 C41.775,52.3585017 42.5585017,51.575 43.525,51.575 C44.4914983,51.575 45.275,52.3585017 45.275,53.325 C45.275,54.2914983 44.4914983,55.075 43.525,55.075 Z" id="Shape" fill="#3D4049" fill-rule="nonzero"></path>
                <path d="M43.525,67.325 C45.4579966,67.325 47.025,65.7579966 47.025,63.825 C47.025,61.8920034 45.4579966,60.325 43.525,60.325 C41.5920034,60.325 40.025,61.8920034 40.025,63.825 C40.025,65.7579966 41.5920034,67.325 43.525,67.325 Z M43.525,65.575 C42.5585017,65.575 41.775,64.7914983 41.775,63.825 C41.775,62.8585017 42.5585017,62.075 43.525,62.075 C44.4914983,62.075 45.275,62.8585017 45.275,63.825 C45.275,64.7914983 44.4914983,65.575 43.525,65.575 Z" id="Shape" fill="#3D4049" fill-rule="nonzero"></path>
                <ellipse id="Oval-1" fill="#F3660D" fill-rule="nonzero" cx="69.25" cy="43.0717921" rx="4.9" ry="4.97179209"></ellipse>
            </g>
        </g>
    </g>
</svg>