<?xml version="1.0" encoding="UTF-8"?>
<svg width="100px" height="100px" viewBox="0 0 100 100" version="1.1" xmlns="http://www.w3.org/2000/svg" xmlns:xlink="http://www.w3.org/1999/xlink">
    <!-- Generator: sketchtool 51.2 (57519) - http://www.bohemiancoding.com/sketch -->
    <title>1E69F446-370B-4D83-8FD5-1ABC133C1C14</title>
    <desc>Created with sketchtool.</desc>
    <defs>
        <path d="M30.066435,29.0588819 C31.1343134,28.7896689 32.3670084,27.749564 32.81174,26.753649 L34.1932627,23.6599198 C35.095894,21.6386019 37.6178,20 39.8205293,20 C39.8205293,20 48.8994932,20 50,20 C51.1341948,20 60.6678796,20 60.6678796,20 C62.8791024,20 65.3212928,21.6730055 66.1218321,23.7346189 L67.2777982,26.7115562 C67.6766592,27.7387354 68.8664042,28.7898498 69.933565,29.0588819 L77.2462154,30.9024072 C81.5285124,31.9819779 85,36.439213 85,40.854286 L85,65.0027268 C85,73.2854921 78.2881057,80 70.0047238,80 L29.9952762,80 C21.7136139,80 15,73.2831404 15,65.0027268 L15,40.854286 C15,36.4375858 18.481226,31.9795229 22.7537846,30.9024072 L30.066435,29.0588819 Z" id="path-1"></path>
    </defs>
    <g id="Symbols" stroke="none" stroke-width="1" fill="none" fill-rule="evenodd">
        <g id="ico100/camera">
            <g id="icon-photo&amp;video">
                <rect id="Rectangle-5" x="0" y="0" width="100" height="100"></rect>
                <mask id="mask-2" fill="white">
                    <use xlink:href="#path-1"></use>
                </mask>
                <path stroke="#3D4049" stroke-width="2" d="M30.3108874,30.0285432 L22.9982371,31.8720685 C19.1664268,32.8380711 16,36.8993067 16,40.854286 L16,65.0027268 C16,72.7317219 22.2667647,79 29.9952762,79 L70.0047238,79 C77.7351795,79 84,72.7338489 84,65.0027268 L84,40.854286 C84,36.8967442 80.8392466,32.8395014 77.0017629,31.8720685 L69.6891126,30.0285432 C68.3075274,29.6802444 66.8616405,28.4024535 66.3456105,27.0735314 L65.1896443,24.0965941 C64.538287,22.4191661 62.4660391,21 60.6678796,21 C59.3206612,21 59.3206612,21 55.2790059,21 C53.4985903,21 53.4985903,21 51.9485068,21 C50.6287553,21 50.6287553,21 50,21 C49.3957432,21 49.3957432,21 48.1369086,21 C46.6598814,21 46.6598814,21 44.9646615,21 C44.7308318,21 44.7308318,21 44.4975746,21 C40.9553998,21 40.9553998,21 39.8205293,21 C38.0119224,21 35.8479356,22.4070056 35.1063574,24.0676675 L33.7248346,27.1613967 C33.1539348,28.439848 31.6731716,29.6851102 30.3108874,30.0285432 Z"></path>
                <path d="M58,29 L42,29" id="Line" stroke="#3D4049" stroke-width="2" stroke-linecap="square" mask="url(#mask-2)"></path>
                <circle id="Oval-6" stroke="#3D4049" stroke-width="2" mask="url(#mask-2)" cx="50" cy="55" r="15"></circle>
                <circle id="Oval-57-Copy-5" fill="#F16624" mask="url(#mask-2)" cx="50" cy="55" r="4"></circle>
            </g>
        </g>
    </g>
</svg>