<?xml version="1.0" encoding="UTF-8"?>
<svg width="100px" height="100px" viewBox="0 0 100 100" version="1.1" xmlns="http://www.w3.org/2000/svg" xmlns:xlink="http://www.w3.org/1999/xlink">
    <!-- Generator: sketchtool 51.2 (57519) - http://www.bohemiancoding.com/sketch -->
    <title>F3050647-2165-43FA-ACEB-4E55A456C71E</title>
    <desc>Created with sketchtool.</desc>
    <defs></defs>
    <g id="Symbols" stroke="none" stroke-width="1" fill="none" fill-rule="evenodd">
        <g id="ico100/checlist_icon">
            <g id="ic_checlist">
                <rect id="Rectangle" fill="#FFFFFF" opacity="0" x="0" y="0" width="100" height="100"></rect>
                <path d="M63.8300246,33.6772455 C59.9948425,30.4297149 55.1364925,28.6160769 50,28.6160769 C45.800048,28.6160769 41.7778881,29.8269172 38.3350035,32.0663462 L39.3573554,33.6381037 C42.4981783,31.5951512 46.1656838,30.4910769 50,30.4910769 C54.688751,30.4910769 59.1188238,32.1448376 62.6183663,35.1081575 L63.8300246,33.6772455 Z M28.625,49.9262357 C28.625,61.6961795 38.1955793,71.2363945 50,71.2363945 C61.8044208,71.2363945 71.375,61.6961795 71.375,49.9262357 C71.375,47.5737187 70.9922035,45.2718342 70.2503896,43.0877482 L68.4749988,43.6907509 C69.1510719,45.6812794 69.5,47.7795024 69.5,49.9262357 C69.5,60.6593095 60.7702184,69.3613945 50,69.3613945 C39.2297816,69.3613945 30.5,60.6593095 30.5,49.9262357 L28.625,49.9262357 Z" id="Shape" fill="#3D4049" fill-rule="nonzero"></path>
                <path d="M49.7726679,58.3453506 C50.1606031,58.7238935 50.78777,58.6955576 51.1399885,58.2835739 L72.4625805,33.3429215 L71.0374195,32.124504 L50.4655455,56.3506689 L41.379884,47.5360191 L40.0704038,48.8779903 L49.7726679,58.3453506 Z" id="Shape" fill="#3D4049" fill-rule="nonzero"></path>
                <path d="M50,87.5 C70.7106781,87.5 87.5,70.7106781 87.5,50 C87.5,29.2893219 70.7106781,12.5 50,12.5 C29.2893219,12.5 12.5,29.2893219 12.5,50 C12.5,70.7106781 29.2893219,87.5 50,87.5 Z M50,85.6155779 C30.3300595,85.6155779 14.3844221,69.6699405 14.3844221,50 C14.3844221,30.3300595 30.3300595,14.3844221 50,14.3844221 C69.6699405,14.3844221 85.6155779,30.3300595 85.6155779,50 C85.6155779,69.6699405 69.6699405,85.6155779 50,85.6155779 Z" id="Shape" fill="#3D4049" fill-rule="nonzero"></path>
                <circle id="Oval-12" fill="#F3660D" fill-rule="nonzero" cx="32.375" cy="40.25" r="5.25"></circle>
            </g>
        </g>
    </g>
</svg>