<?xml version="1.0" encoding="UTF-8"?>
<svg width="100px" height="100px" viewBox="0 0 100 100" version="1.1" xmlns="http://www.w3.org/2000/svg" xmlns:xlink="http://www.w3.org/1999/xlink">
    <!-- Generator: sketchtool 51.2 (57519) - http://www.bohemiancoding.com/sketch -->
    <title>B668CA0B-0F99-4595-8ACC-A1AEEA303885</title>
    <desc>Created with sketchtool.</desc>
    <defs></defs>
    <g id="Symbols" stroke="none" stroke-width="1" fill="none" fill-rule="evenodd">
        <g id="ico100/cloud">
            <g id="ic_cloud">
                <rect id="Rectangle-3" x="0" y="0" width="100" height="100"></rect>
                <path d="M64.328776,27.0863345 C62.2271183,20.1651923 55.7382697,15.3872495 48.2169808,15.3872495 C41.0084501,15.3872495 34.5447085,20.0790306 32.2701347,26.6773788 C22.9927264,26.6793438 15.5181254,34.0402368 15.5181254,43.080573 C15.5181254,52.1308685 23.0632439,59.4893598 32.3437781,59.4893598 L67.9585715,59.4893598 C77.2397692,59.4893598 84.7880485,52.1302213 84.7880485,43.080573 C84.7860311,34.0404772 77.234314,26.6773783 67.9585715,26.6773783 C66.4577525,26.6773783 65.8094626,26.6835404 64.328776,27.0863345 Z M83.0475982,43.0807576 C83.0475982,51.1933008 76.2784806,57.7928014 67.9585715,57.7928014 L32.3437781,57.7928014 C24.0246615,57.7928014 17.2585757,51.1940735 17.2585757,43.080573 C17.2585757,34.9769074 24.0279976,28.373834 32.3439671,28.3720726 C32.4155718,28.3720726 32.4768502,28.3738139 32.6290206,28.379502 C32.7395749,28.3836345 32.7934761,28.3854133 32.8608786,28.3867965 C33.2566999,28.3949194 33.6082587,28.1415758 33.7163555,27.7703146 C35.5393319,21.5092513 41.5236712,17.0838079 48.2169808,17.0838079 C55.2255656,17.0838079 61.2264037,21.7025935 62.8618569,28.3008483 C62.9775402,28.7675738 63.4672099,29.0477519 63.9416583,28.9186867 C65.2714301,28.5569463 66.6173847,28.3739366 67.9585715,28.3739366 C76.2730563,28.3739366 83.0457898,34.9775086 83.0475982,43.0807576 Z" id="Shape" fill="#3D4049" fill-rule="nonzero"></path>
                <path d="M50.2723078,84.0098217 C55.5590408,84.0098217 59.8447846,79.8321588 59.8447846,74.6787506 C59.8447846,69.5253424 55.5590408,65.3476797 50.2723078,65.3476797 C44.9855749,65.3476797 40.699831,69.5253424 40.699831,74.6787506 C40.699831,79.8321588 44.9855749,84.0098217 50.2723078,84.0098217 Z M50.2723078,82.3132633 C45.946799,82.3132633 42.4402813,78.8951755 42.4402813,74.6787506 C42.4402813,70.4623257 45.946799,67.0442381 50.2723078,67.0442381 C54.5978165,67.0442381 58.1043342,70.4623257 58.1043342,74.6787506 C58.1043342,78.8951755 54.5978165,82.3132633 50.2723078,82.3132633 Z" id="Shape" fill="#3D4049" fill-rule="nonzero"></path>
                <path d="M15.2892562,75.3768634 L41.555445,75.3768634 L41.555445,73.6413262 L15.2892562,73.6413262 L15.2892562,75.3768634 Z M59.2180593,75.3768634 L84.9777202,75.3768634 L84.9777202,73.6413262 L59.2180593,73.6413262 L59.2180593,75.3768634 Z" id="Shape" fill="#3D4049" fill-rule="nonzero"></path>
                <polygon id="Shape" fill="#3D4049" fill-rule="nonzero" points="49.3749165 59.037807 49.3749165 65.7859639 51.1153668 65.7859639 51.1153668 59.037807"></polygon>
                <ellipse id="Oval-12" fill="#F3660D" fill-rule="nonzero" cx="50.2723078" cy="74.6787506" rx="4.87326092" ry="4.75036341"></ellipse>
            </g>
        </g>
    </g>
</svg>